<svg xmlns="http://www.w3.org/2000/svg" xmlns:xlink="http://www.w3.org/1999/xlink" width="21.965" height="23.406" viewBox="0 0 21.965 23.406">
  <defs>
    <clipPath id="clip-path">
      <rect id="Rectángulo_900" data-name="Rectángulo 900" width="21.965" height="23.406" fill="#929fac"/>
    </clipPath>
  </defs>
  <g id="Grupo_8060" data-name="Grupo 8060" clip-path="url(#clip-path)">
    <path id="Trazado_1590" data-name="Trazado 1590" d="M16.13,22.065a12.22,12.22,0,0,1-5.97,1.341c-5.5,0-10.16-4.025-10.16-10.5C0,6,4.8,0,12.24,0a9.314,9.314,0,0,1,9.725,9.725c0,5.03-2.817,7.98-5.935,7.98-1.342,0-2.582-.872-2.516-2.95h-.1A5.27,5.27,0,0,1,8.685,17.7c-1.945,0-3.621-1.575-3.621-4.224a7.919,7.919,0,0,1,7.946-7.949,8.953,8.953,0,0,1,3.588.705l-1.139,6.07c-.5,2.548-.1,3.723,1.005,3.755,1.71.068,3.622-2.246,3.622-6.1,0-4.9-2.918-8.418-8.115-8.418C6.506,1.542,1.912,5.9,1.912,12.71c0,5.6,3.655,9.086,8.618,9.086a10.445,10.445,0,0,0,5.063-1.173ZM14.286,7.578a4.686,4.686,0,0,0-1.677-.267c-2.951,0-5.332,2.782-5.332,6.035,0,1.476.738,2.55,2.213,2.55,1.945,0,3.723-2.482,4.092-4.561Z" transform="translate(0 0)" fill="#929fac"/>
  </g>
</svg>
