<svg xmlns="http://www.w3.org/2000/svg" xmlns:xlink="http://www.w3.org/1999/xlink" width="20.381" height="19" viewBox="0 0 20.381 19">
  <defs>
    <clipPath id="clip-path">
      <rect id="Rectángulo_898" data-name="Rectángulo 898" width="20.381" height="19" transform="translate(0 0)" fill="none" stroke="#939fad" stroke-width="1.5"/>
    </clipPath>
  </defs>
  <g id="Grupo_8057" data-name="Grupo 8057" clip-path="url(#clip-path)">
    <path id="Trazado_1586" data-name="Trazado 1586" d="M2.994,18.362h0A2.243,2.243,0,0,1,.75,16.118V2.994a2.244,2.244,0,0,1,4.488,0V16.118A2.243,2.243,0,0,1,2.994,18.362Z" transform="translate(-0.056 -0.056)" fill="none" stroke="#939fad" stroke-linecap="round" stroke-linejoin="round" stroke-width="1.5"/>
    <path id="Trazado_1587" data-name="Trazado 1587" d="M18.664,18.362h0a2.244,2.244,0,0,1-2.245-2.244V2.994a2.244,2.244,0,0,1,4.488,0V16.118A2.243,2.243,0,0,1,18.664,18.362Z" transform="translate(-1.221 -0.056)" fill="none" stroke="#939fad" stroke-linecap="round" stroke-linejoin="round" stroke-width="1.5"/>
    <path id="Trazado_1588" data-name="Trazado 1588" d="M8.854,18.3h0a2.245,2.245,0,0,1-1.745-2.651L9.76,2.793a2.244,2.244,0,1,1,4.4.906l-2.65,12.853A2.244,2.244,0,0,1,8.854,18.3Z" transform="translate(-0.525 -0.074)" fill="none" stroke="#939fad" stroke-linecap="round" stroke-linejoin="round" stroke-width="1.5"/>
  </g>
</svg>
