<svg xmlns="http://www.w3.org/2000/svg" width="24.79" height="23.406" viewBox="0 0 24.79 23.406">
  <g id="Grupo_8074" data-name="Grupo 8074" transform="translate(16168.125 18076.798)">
    <path id="Trazado_933" data-name="Trazado 933" d="M942.591,23.534H920a1.087,1.087,0,0,1-1.1-1.073V3.538A1.087,1.087,0,0,1,920,2.465h22.589a1.087,1.087,0,0,1,1.1,1.073V22.462a1.087,1.087,0,0,1-1.1,1.073M921.1,21.389H941.49V4.611H921.1Z" transform="translate(-17087.027 -18076.926)" fill="#939fad"/>
    <path id="Trazado_934" data-name="Trazado 934" d="M937,7.873a1.4,1.4,0,0,1-1.4-1.4V3.2a1.4,1.4,0,1,1,2.8,0V6.471a1.4,1.4,0,0,1-1.4,1.4" transform="translate(-17087.242 -18078.596)" fill="#939fad"/>
    <path id="Trazado_935" data-name="Trazado 935" d="M924.25,7.873a1.4,1.4,0,0,1-1.4-1.4V3.2a1.4,1.4,0,0,1,2.8,0V6.471a1.4,1.4,0,0,1-1.4,1.4" transform="translate(-17085.346 -18078.596)" fill="#939fad"/>
    <path id="Trazado_936" data-name="Trazado 936" d="M942.112,10.769H920.085a.636.636,0,0,1-.542-.7.636.636,0,0,1,.542-.7h22.028a.636.636,0,0,1,.542.7.636.636,0,0,1-.542.7" transform="translate(-17086.77 -18077.957)" fill="#939fad"/>
    <g id="Grupo_3249" data-name="Grupo 3249" transform="translate(-16162.714 -18065.48)">
      <rect id="Rectángulo_431" data-name="Rectángulo 431" width="2.908" height="2.906" transform="translate(0)" fill="#939fad"/>
      <rect id="Rectángulo_432" data-name="Rectángulo 432" width="2.906" height="2.906" transform="translate(5.345)" fill="#939fad"/>
      <rect id="Rectángulo_433" data-name="Rectángulo 433" width="2.909" height="2.906" transform="translate(10.692)" fill="#939fad"/>
      <rect id="Rectángulo_436" data-name="Rectángulo 436" width="2.908" height="2.908" transform="translate(0 5.058)" fill="#939fad"/>
      <rect id="Rectángulo_437" data-name="Rectángulo 437" width="2.906" height="2.908" transform="translate(5.345 5.058)" fill="#939fad"/>
      <rect id="Rectángulo_438" data-name="Rectángulo 438" width="2.909" height="2.908" transform="translate(10.692 5.058)" fill="#939fad"/>
    </g>
  </g>
</svg>
