<svg xmlns="http://www.w3.org/2000/svg" xmlns:xlink="http://www.w3.org/1999/xlink" width="24.846" height="22.552" viewBox="0 0 24.846 22.552">
  <defs>
    <clipPath id="clip-path">
      <rect id="Rectángulo_505" data-name="Rectángulo 505" width="24.846" height="22.552" fill="#939fad"/>
    </clipPath>
  </defs>
  <g id="Grupo_8075" data-name="Grupo 8075" transform="translate(0 0)">
    <g id="Grupo_3244" data-name="Grupo 3244" transform="translate(0 0)" clip-path="url(#clip-path)">
      <path id="Trazado_1232" data-name="Trazado 1232" d="M12.428,0C5.575,0,0,4.509,0,10.05c0,3.45,2.237,6.7,5.855,8.526a6.269,6.269,0,0,1-2.106,1.636,1.226,1.226,0,0,0-.674,1,1.218,1.218,0,0,0,1.124,1.3c.309.022.617.034.911.034v-.163h.005l0,.163c.091,0,.182,0,.273,0a10.127,10.127,0,0,0,6.625-2.461c.141.008.278.008.419.008,6.847,0,12.418-4.508,12.418-10.05S19.275,0,12.428,0M10.672,18a6.8,6.8,0,0,1-2.557,1.62c.116-.164.226-.335.33-.51a3.548,3.548,0,0,0,.219-.413l.065-.128q.029-.06.05-.116a1.214,1.214,0,0,0-.714-1.564c-3.417-1.278-5.626-3.962-5.626-6.84,0-4.2,4.482-7.616,9.989-7.616s9.988,3.417,9.988,7.619-4.482,7.617-9.992,7.617c-.242,0-.483-.014-.718-.027l-.088-.005a1.219,1.219,0,0,0-.946.364" transform="translate(0 0)" fill="#939fad"/>
    </g>
  </g>
</svg>
