<svg xmlns="http://www.w3.org/2000/svg" xmlns:xlink="http://www.w3.org/1999/xlink" width="10.672" height="9.039" viewBox="0 0 10.672 9.039">
  <defs>
    <clipPath id="clip-path">
      <rect id="Rectángulo_174" data-name="Rectángulo 174" width="10.672" height="9.039" fill="#fff"/>
    </clipPath>
  </defs>
  <g id="Grupo_232" data-name="Grupo 232" clip-path="url(#clip-path)">
    <path id="Trazado_380" data-name="Trazado 380" d="M2.657,8.605.217,6.2A.729.729,0,0,1,.21,5.171l.614-.623A.729.729,0,0,1,1.854,4.54l1.8,1.771L8.713.262A.729.729,0,0,1,9.74.17l.671.561A.729.729,0,0,1,10.5,1.758L4.863,8.5a1.508,1.508,0,0,1-1.08.539l-.071,0a1.509,1.509,0,0,1-1.056-.434" transform="translate(0 0)" fill="#fff"/>
  </g>
</svg>
