<svg xmlns="http://www.w3.org/2000/svg" xmlns:xlink="http://www.w3.org/1999/xlink" width="48.489" height="51.187" viewBox="0 0 48.489 51.187">
  <defs>
    <clipPath id="clip-path">
      <rect id="Rectángulo_148" data-name="Rectángulo 148" width="48.489" height="51.187" fill="none"/>
    </clipPath>
  </defs>
  <g id="Grupo_169" data-name="Grupo 169" clip-path="url(#clip-path)">
    <path id="Trazado_291" data-name="Trazado 291" d="M144.01,51.187h-31.9a4.171,4.171,0,0,1-4.158-4.158V4.159A4.171,4.171,0,0,1,112.106,0h23.305l12.757,12.747V47.028a4.171,4.171,0,0,1-4.158,4.158" transform="translate(-99.68)" fill="#1853aa"/>
    <path id="Trazado_292" data-name="Trazado 292" d="M455.1,0h-.947V11.568a2.233,2.233,0,0,0,2.227,2.227h11.477V12.747Z" transform="translate(-419.37)" fill="#113c70"/>
    <path id="Trazado_293" data-name="Trazado 293" d="M55.914,266.46H22.362a.8.8,0,0,0-.8.8v13.468a.8.8,0,0,0,.8.8H55.914a.8.8,0,0,0,.8-.8V267.264a.8.8,0,0,0-.8-.8" transform="translate(-19.907 -246.051)" fill="#fff"/>
    <path id="Trazado_294" data-name="Trazado 294" d="M36.007,244.9H2.455A2.457,2.457,0,0,0,0,247.357v13.468a2.458,2.458,0,0,0,2.455,2.455H36.007a2.458,2.458,0,0,0,2.455-2.455V247.357a2.457,2.457,0,0,0-2.455-2.455m.8,15.923a.8.8,0,0,1-.8.8H2.455a.8.8,0,0,1-.8-.8V247.357a.8.8,0,0,1,.8-.8H36.007a.8.8,0,0,1,.8.8Z" transform="translate(0 -226.145)" fill="#3d7fc1"/>
    <path id="Trazado_295" data-name="Trazado 295" d="M42.052,396.081a1.1,1.1,0,1,1-1.1,1.1,1.089,1.089,0,0,1,1.1-1.1" transform="translate(-37.816 -365.744)" fill="#3d7fc1"/>
    <path id="Trazado_296" data-name="Trazado 296" d="M88.693,300.583c0-.741.4-1.112,1.235-1.112h2.261c2.631,0,3.978,2.446,3.978,4.842s-1.618,4.756-4.212,4.756H89.743c-.791,0-1.05-.148-1.05-1.038Zm1.989.865v5.645H91.9c1.445,0,2.224-1.384,2.224-2.779,0-1.458-.692-2.866-2.063-2.866Z" transform="translate(-81.9 -276.534)" fill="#3d7fc1"/>
    <path id="Trazado_297" data-name="Trazado 297" d="M216.181,300.777c0,2.5-1.421,4.978-4.262,4.978-2.792,0-4.2-2.508-4.2-5.015,0-2.483,1.4-4.978,4.2-4.978,2.841,0,4.262,2.52,4.262,5.015m-6.436-.062c0,1.544.729,3.076,2.2,3.076,1.495,0,2.211-1.47,2.211-2.989s-.729-3.039-2.236-3.039c-1.47,0-2.174,1.458-2.174,2.952" transform="translate(-191.809 -273.109)" fill="#3d7fc1"/>
    <path id="Trazado_298" data-name="Trazado 298" d="M347.448,302.53a.922.922,0,0,1,.988,1,1.085,1.085,0,0,1-.371.852,4.121,4.121,0,0,1-2.816,1.1c-2.989,0-4.472-2.483-4.472-4.978,0-2.52,1.519-5.065,4.534-5.065a4.048,4.048,0,0,1,2.816,1.075,1.138,1.138,0,0,1,.383.84.961.961,0,0,1-.976,1.025,1.133,1.133,0,0,1-.754-.3,2.13,2.13,0,0,0-1.507-.581c-1.631,0-2.421,1.458-2.421,2.928,0,1.507.828,2.928,2.434,2.928a2,2,0,0,0,1.482-.531.876.876,0,0,1,.679-.3" transform="translate(-314.676 -272.811)" fill="#3d7fc1"/>
  </g>
</svg>
