<svg xmlns="http://www.w3.org/2000/svg" width="36" height="36" viewBox="0 0 36 36">
  <g id="Grupo_9566" data-name="Grupo 9566" transform="translate(-1752 -144)">
    <rect id="Rectángulo_1231" data-name="Rectángulo 1231" width="36" height="36" rx="4" transform="translate(1752 180) rotate(-90)" fill="#242e3c"/>
    <g id="Grupo_9305" data-name="Grupo 9305" transform="translate(1759.766 151.914)">
      <path id="Trazado_912" data-name="Trazado 912" d="M66,139.773a.861.861,0,0,1-.607-.248.83.83,0,0,1-.25-.648l.222-3.723a.841.841,0,0,1,.25-.548l10.242-10.094a.867.867,0,0,1,1.214,0l3.555,3.5a.839.839,0,0,1,0,1.2l-10.244,10.1a.865.865,0,0,1-.556.246l-3.776.218-.05,0m1.06-4.2-.146,2.45,2.484-.143,9.4-9.271-2.338-2.305Z" transform="translate(-60.734 -124.119)" fill="#d0d0d0"/>
      <path id="Trazado_913" data-name="Trazado 913" d="M79.717,131.094a.434.434,0,0,1-.3-.124l-3.195-3.149a.418.418,0,0,1,0-.6.434.434,0,0,1,.607,0l3.2,3.148a.42.42,0,0,1,0,.6.436.436,0,0,1-.3.124" transform="translate(-62.436 -124.555)" fill="#d0d0d0"/>
      <path id="Trazado_914" data-name="Trazado 914" d="M65.734,139.69c-.072,0-.144,0-.218.009s-.134.03-.2.041l-.155,2.576,2.509-.15c.021-.092.046-.188.058-.286a1.936,1.936,0,0,0-1.994-2.19" transform="translate(-59.878 -127.49)" fill="#d0d0d0"/>
      <path id="Trazado_915" data-name="Trazado 915" d="M79.8,144.264H61.05a.852.852,0,0,1-.859-.846V124.939a.852.852,0,0,1,.859-.846h9.3a.846.846,0,1,1,0,1.693H61.909v16.786H78.942v-8.324a.859.859,0,0,1,1.718,0v9.171a.852.852,0,0,1-.859.846" transform="translate(-60.191 -124.093)" fill="#d0d0d0"/>
    </g>
  </g>
</svg>
