<svg xmlns="http://www.w3.org/2000/svg" width="26.048" height="20.838" viewBox="0 0 26.048 20.838">
  <path id="eye-slash-solid" d="M1.574.2a.977.977,0,1,0-1.2,1.538L24.463,20.625a.977.977,0,0,0,1.2-1.538l-4.282-3.354a16.215,16.215,0,0,0,3.252-4.819,1.294,1.294,0,0,0,0-1,16.207,16.207,0,0,0-3.785-5.336A11.434,11.434,0,0,0,13.018,1.3a11.115,11.115,0,0,0-6.89,2.474Zm7.5,5.877a5.862,5.862,0,0,1,9.1,7.13L16.6,11.98a3.907,3.907,0,0,0-3.411-5.47.345.345,0,0,0-.3.476,2.642,2.642,0,0,1,.134.826,2.593,2.593,0,0,1-.269,1.152L9.079,6.083Zm6.1,9.784a5.861,5.861,0,0,1-8.018-5.45,6.062,6.062,0,0,1,.057-.822L3.377,6.567A15.4,15.4,0,0,0,1.4,9.913a1.294,1.294,0,0,0,0,1A16.207,16.207,0,0,0,5.184,16.25a11.434,11.434,0,0,0,7.834,3.28,10.7,10.7,0,0,0,5.136-1.323Z" transform="translate(0.006 0.006)" fill="#a2acb7"/>
</svg>
