<svg xmlns="http://www.w3.org/2000/svg" width="23.475" height="18.257" viewBox="0 0 23.475 18.257">
  <path id="eye-solid" d="M11.76,32a11.467,11.467,0,0,0-7.849,3.285A16.147,16.147,0,0,0,.126,40.627a1.3,1.3,0,0,0,0,1,16.146,16.146,0,0,0,3.786,5.343,11.467,11.467,0,0,0,7.849,3.285,11.467,11.467,0,0,0,7.849-3.285A16.269,16.269,0,0,0,23.4,41.63a1.3,1.3,0,0,0,0-1,16.228,16.228,0,0,0-3.79-5.343A11.467,11.467,0,0,0,11.76,32ZM5.892,41.128A5.868,5.868,0,1,1,11.76,47,5.868,5.868,0,0,1,5.892,41.128ZM11.76,38.52a2.611,2.611,0,0,1-2.608,2.608,2.646,2.646,0,0,1-.827-.134.347.347,0,0,0-.477.3,3.781,3.781,0,0,0,.13.844,3.913,3.913,0,1,0,3.949-4.923.346.346,0,0,0-.3.477,2.646,2.646,0,0,1,.134.827Z" transform="translate(-0.025 -32)" fill="#a2acb7"/>
</svg>
