<svg xmlns="http://www.w3.org/2000/svg" width="28.565" height="22.851" viewBox="0 0 28.565 22.851">
  <path id="comments-regular" d="M3.915,13.8a2.142,2.142,0,0,0-.335-2.49,4.987,4.987,0,0,1-1.459-3.45c0-2.834,2.847-5.713,7.141-5.713S16.4,5.021,16.4,7.855s-2.847,5.713-7.141,5.713a8.977,8.977,0,0,1-1.687-.161,2.14,2.14,0,0,0-1.37.187q-.274.141-.562.268a14.564,14.564,0,0,1-2.227.8c.125-.205.241-.406.353-.607.049-.085.1-.174.143-.263ZM-.021,7.855a7.119,7.119,0,0,0,2.049,4.923c-.04.076-.085.156-.125.228A12.393,12.393,0,0,1,.269,15.331a1.073,1.073,0,0,0,.781,1.808,13.661,13.661,0,0,0,5.476-1.326c.214-.1.428-.2.634-.3a10.8,10.8,0,0,0,2.1.2c5.128,0,9.283-3.517,9.283-7.855S14.39,0,9.262,0-.021,3.517-.021,7.855ZM19.26,21.423a11.192,11.192,0,0,0,2.1-.2c.205.1.42.205.634.3a13.661,13.661,0,0,0,5.476,1.326,1.069,1.069,0,0,0,.777-1.8,12.82,12.82,0,0,1-1.634-2.325c-.04-.076-.085-.152-.125-.228a7.122,7.122,0,0,0,2.053-4.927c0-4.213-3.923-7.654-8.846-7.846a8.174,8.174,0,0,1,.277,2.133v.027c3.892.3,6.427,3.013,6.427,5.686a4.968,4.968,0,0,1-1.459,3.446,2.143,2.143,0,0,0-.335,2.49c.049.089.1.179.143.263.112.2.232.4.353.607a14.106,14.106,0,0,1-2.227-.8q-.288-.127-.562-.268a2.14,2.14,0,0,0-1.37-.187,8.654,8.654,0,0,1-1.687.161A7.494,7.494,0,0,1,13.15,16.5a12.314,12.314,0,0,1-2.232.527A9.563,9.563,0,0,0,19.26,21.423Z" transform="translate(0.022)" fill="#939fad"/>
</svg>
