<svg id="Grupo_901" data-name="Grupo 901" xmlns="http://www.w3.org/2000/svg" width="16.446" height="14.449" viewBox="0 0 16.446 14.449">
  <path id="Trazado_133" data-name="Trazado 133" d="M15.9,4.393H.542c-.3,0-.542-.405-.542-.906s.243-.906.542-.906H15.9c.3,0,.542.405.542.906s-.243.906-.542.906" transform="translate(0 -2.582)" fill="#b2b2b2"/>
  <path id="Trazado_135" data-name="Trazado 135" d="M15.9,14.129H.542c-.3,0-.542-.346-.542-.774s.243-.774.542-.774H15.9c.3,0,.542.346.542.774s-.243.774-.542.774" transform="translate(0 -5.999)" fill="#b2b2b2"/>
  <path id="Trazado_398" data-name="Trazado 398" d="M15.9,4.393H.542c-.3,0-.542-.405-.542-.906s.243-.906.542-.906H15.9c.3,0,.542.405.542.906s-.243.906-.542.906" transform="translate(0 10.056)" fill="#b2b2b2"/>
</svg>
