<svg xmlns="http://www.w3.org/2000/svg" xmlns:xlink="http://www.w3.org/1999/xlink" width="60.841" height="60.841" viewBox="0 0 60.841 60.841">
  <defs>
    <clipPath id="clip-path">
      <rect id="Rectángulo_208" data-name="Rectángulo 208" width="60.841" height="60.841" fill="#0082C9"/>
    </clipPath>
  </defs>
  <g id="Grupo_9593" data-name="Grupo 9593" transform="translate(0.468 0.167)">
    <g id="Grupo_493" data-name="Grupo 493" transform="translate(-0.468 -0.167)" clip-path="url(#clip-path)">
      <path id="ico_mate" d="M30.421,0A30.421,30.421,0,1,1,0,30.421,30.421,30.421,0,0,1,30.421,0" transform="translate(0)" fill="#0082C9"/>
    </g>
  </g>
  <path id="list-check-solid" d="M11.794,32.405a1.863,1.863,0,0,1,.14,2.639l-5.6,6.227a1.838,1.838,0,0,1-1.339.615,1.91,1.91,0,0,1-1.37-.545L.5,38.228a1.884,1.884,0,0,1,0-2.647,1.861,1.861,0,0,1,2.639,0l1.72,1.72,4.289-4.764a1.863,1.863,0,0,1,2.639-.14Zm0,12.455a1.863,1.863,0,0,1,.14,2.639l-5.6,6.227a1.838,1.838,0,0,1-1.339.615A1.91,1.91,0,0,1,3.62,53.8L.5,50.683a1.866,1.866,0,1,1,2.639-2.639l1.72,1.72L9.147,45a1.863,1.863,0,0,1,2.639-.14Zm5.6-7.956a2.488,2.488,0,0,1,2.491-2.491H37.319a2.491,2.491,0,0,1,0,4.982H19.882A2.488,2.488,0,0,1,17.391,36.9Zm0,12.455a2.488,2.488,0,0,1,2.491-2.491H37.319a2.491,2.491,0,0,1,0,4.982H19.882A2.488,2.488,0,0,1,17.391,49.36ZM12.409,61.815A2.488,2.488,0,0,1,14.9,59.324H37.319a2.491,2.491,0,1,1,0,4.982H14.9A2.488,2.488,0,0,1,12.409,61.815ZM3.69,58.078A3.736,3.736,0,1,1-.046,61.815,3.736,3.736,0,0,1,3.69,58.078Z" transform="translate(10.541 -18.313)" fill="#fff"/>
</svg>
