<svg xmlns="http://www.w3.org/2000/svg" width="79" height="79" viewBox="0 0 79 79">
  <g id="Grupo_1094" data-name="Grupo 1094" transform="translate(0.5 0.5)">
    <g id="Grupo_1018" data-name="Grupo 1018">
      <path id="mujer_26" d="M39,0A39,39,0,1,1,0,39,39,39,0,0,1,39,0" fill="none" stroke="#80bf1b" stroke-width="1"/>
      <path id="mujer_26-2" data-name="mujer_26" d="M33,0A33,33,0,1,1,0,33,33,33,0,0,1,33,0" transform="translate(6 6)" fill="none" stroke="#80bf1b" stroke-width="1"/>
    </g>
    <path id="Trazado_492" data-name="Trazado 492" d="M24.194-10.742a6.627,6.627,0,0,1-2.417,5.3,12.539,12.539,0,0,1-6.689,2.588V2.905H13.11V-2.759a30.022,30.022,0,0,1-4.9-.549A18.082,18.082,0,0,1,4-4.541V-7.056A22.009,22.009,0,0,0,8.386-5.566a20.4,20.4,0,0,0,4.724.61v-12.4a22.762,22.762,0,0,1-5.249-2.148,6.857,6.857,0,0,1-2.49-2.539A7.49,7.49,0,0,1,4.59-25.61,6.56,6.56,0,0,1,6.9-30.7a11.142,11.142,0,0,1,6.213-2.551v-4.687h1.978V-33.3a25.607,25.607,0,0,1,8.569,1.758l-.806,2.2A22.271,22.271,0,0,0,15.088-31.1v11.865q5.2,1.611,7.153,3.516A6.644,6.644,0,0,1,24.194-10.742Zm-2.686-.1a4.373,4.373,0,0,0-1.538-3.43A12.976,12.976,0,0,0,15.088-16.6V-5.1a8.251,8.251,0,0,0,4.7-1.831A4.962,4.962,0,0,0,21.509-10.84ZM7.251-25.61a4.574,4.574,0,0,0,1.392,3.442A11.038,11.038,0,0,0,13.11-19.9v-11.06A7.456,7.456,0,0,0,8.728-29.1,4.747,4.747,0,0,0,7.251-25.61Z" transform="translate(24.9 56.517)" fill="#80bf1b"/>
  </g>
</svg>
