<svg xmlns="http://www.w3.org/2000/svg" xmlns:xlink="http://www.w3.org/1999/xlink" width="48.489" height="51.38" viewBox="0 0 48.489 51.38">
  <defs>
    <clipPath id="clip-path">
      <rect id="Rectángulo_153" data-name="Rectángulo 153" width="48.489" height="51.38" fill="none"/>
    </clipPath>
  </defs>
  <g id="Grupo_183" data-name="Grupo 183" clip-path="url(#clip-path)">
    <path id="Trazado_331" data-name="Trazado 331" d="M44.33,51.382h-31.9a4.174,4.174,0,0,1-4.159-4.174V4.176A4.176,4.176,0,0,1,12.427,0h23.3L48.487,12.8V47.208a4.174,4.174,0,0,1-4.159,4.174" transform="translate(0 -0.001)" fill="#1997dd"/>
    <path id="Trazado_332" data-name="Trazado 332" d="M35.732,0h-.947V11.614a2.236,2.236,0,0,0,2.227,2.235H48.487V12.8Z" transform="translate(0 -0.001)" fill="#137caa"/>
    <path id="Trazado_333" data-name="Trazado 333" d="M36.007,20.488H2.455a.805.805,0,0,0-.8.807V34.814a.805.805,0,0,0,.8.807H36.007a.805.805,0,0,0,.8-.807V21.3a.805.805,0,0,0-.8-.807" transform="translate(0 -0.001)" fill="#fff"/>
    <path id="Trazado_334" data-name="Trazado 334" d="M36.007,18.828H2.455A2.459,2.459,0,0,0,0,21.294V34.813a2.461,2.461,0,0,0,2.455,2.464H36.007a2.46,2.46,0,0,0,2.455-2.464V21.294a2.458,2.458,0,0,0-2.455-2.464m.8,15.983a.8.8,0,0,1-.8.807H2.455a.8.8,0,0,1-.8-.807V21.294a.8.8,0,0,1,.8-.807H36.007a.8.8,0,0,1,.8.807Z" transform="translate(0 -0.001)" fill="#41b2fc"/>
    <path id="Trazado_335" data-name="Trazado 335" d="M6.657,30.453a1.083,1.083,0,0,1,.968,1.173,1.061,1.061,0,0,1-1.1,1.035,1.078,1.078,0,0,1-.97-1.108,1.091,1.091,0,0,1,1.086-1.1h.013" transform="translate(0 -0.001)" fill="#41b2fc"/>
    <path id="Trazado_336" data-name="Trazado 336" d="M13.874,30.379a2.333,2.333,0,0,1-2.2,2.443,2,2,0,0,1-.279-.013,2.756,2.756,0,0,1-1.927-.719A1.036,1.036,0,0,1,9.322,30.7a.9.9,0,0,1,.759-.369,1.726,1.726,0,0,1,.8.36.869.869,0,0,0,.519.174.434.434,0,0,0,.467-.4.534.534,0,0,0,0-.08V24c0-.682.309-1,.988-1a.884.884,0,0,1,1.013,1Z" transform="translate(0 -0.001)" fill="#41b2fc"/>
    <path id="Trazado_337" data-name="Trazado 337" d="M15.687,24.042a.91.91,0,0,1,1.038-1.029h2.582a3.023,3.023,0,0,1,3.23,2.853,3.116,3.116,0,0,1-2.668,3.453,2.842,2.842,0,0,1-.488.006H17.664v2.331a.874.874,0,0,1-.988,1,.876.876,0,0,1-.988-1ZM17.664,25v2.344h1.667a1.1,1.1,0,0,0,1.2-1.011,1.142,1.142,0,0,0,.007-.155c0-.744-.494-1.178-1.4-1.178Z" transform="translate(0 -0.001)" fill="#41b2fc"/>
    <path id="Trazado_338" data-name="Trazado 338" d="M29.844,28.9H28.053c-.716,0-1.075-.347-1.075-.992,0-.682.374-1,1.112-1h2.483c1.173,0,1.3.769,1.3,1.6A3.964,3.964,0,0,1,28.322,32.8a3.637,3.637,0,0,1-.443,0c-2.9,0-4.3-2.406-4.3-4.861,0-2.728,1.482-5.27,4.459-5.27,1.446,0,3.2.843,3.2,2a.9.9,0,0,1-.805.978.578.578,0,0,1-.072,0,1.1,1.1,0,0,1-.753-.322,2.27,2.27,0,0,0-1.6-.6c-1.569,0-2.339,1.463-2.339,3.2,0,1.438.741,2.84,2.245,2.84a1.831,1.831,0,0,0,1.923-1.758c0-.034,0-.068,0-.1" transform="translate(0 -0.001)" fill="#41b2fc"/>
  </g>
</svg>
