<svg xmlns="http://www.w3.org/2000/svg" xmlns:xlink="http://www.w3.org/1999/xlink" width="118.826" height="30.959" viewBox="0 0 118.826 30.959">
  <defs>
    <clipPath id="clip-path">
      <rect id="Rectángulo_639" data-name="Rectángulo 639" width="118.826" height="30.959" fill="none"/>
    </clipPath>
  </defs>
  <g id="Grupo_4051" data-name="Grupo 4051" clip-path="url(#clip-path)">
    <path id="Trazado_1506" data-name="Trazado 1506" d="M43.515,14.23C43.515,6.391,33.774,0,21.758,0S0,6.391,0,14.23c0,.2,0,.762,0,.833C0,23.38,8.513,30.116,21.755,30.116c13.324,0,21.759-6.734,21.759-15.051Z" transform="translate(0 0)" fill="#384a8f" fill-rule="evenodd"/>
    <path id="Trazado_1507" data-name="Trazado 1507" d="M44.91,16.444c0,7.391-9.366,13.382-20.919,13.382S3.072,23.835,3.072,16.444,12.437,3.061,23.991,3.061,44.91,9.053,44.91,16.444" transform="translate(-2.229 -2.221)" fill="#00b0f0" fill-rule="evenodd"/>
    <path id="Trazado_1508" data-name="Trazado 1508" d="M53.631,23.633c-.011.021-.22.237-.085.41a2.615,2.615,0,0,0,2.381.433,6.909,6.909,0,0,0,2.163-1.369,8.653,8.653,0,0,1,2.469-1.575,2.821,2.821,0,0,1,1.8-.047A5.542,5.542,0,0,1,64,22.443c1.431,1.076,7.187,6.1,8.181,6.969a49.653,49.653,0,0,1,9.2-2.96,11.4,11.4,0,0,0-4.368-6.87c-3.315,1.393-7.368,2.119-11.33.184a10.966,10.966,0,0,0-4.28-.973c-3.144.073-4.506,1.434-5.947,2.874Z" transform="translate(-38.815 -13.632)" fill="#fff" fill-rule="evenodd"/>
    <path id="Trazado_1509" data-name="Trazado 1509" d="M53.631,23.633c-.011.021-.22.237-.085.41a2.615,2.615,0,0,0,2.381.433,6.909,6.909,0,0,0,2.163-1.369,8.653,8.653,0,0,1,2.469-1.575,2.821,2.821,0,0,1,1.8-.047A5.542,5.542,0,0,1,64,22.443c1.431,1.076,7.187,6.1,8.181,6.969a49.653,49.653,0,0,1,9.2-2.96,11.4,11.4,0,0,0-4.368-6.87c-3.315,1.393-7.368,2.119-11.33.184a10.966,10.966,0,0,0-4.28-.973c-3.144.073-4.506,1.434-5.947,2.874Z" transform="translate(-38.815 -13.632)" fill="none" stroke="#000" stroke-linejoin="bevel" stroke-width="0.216"/>
    <path id="Trazado_1510" data-name="Trazado 1510" d="M35.78,30.882c-.068-.06-6.768-5.923-8.286-7.064a3.717,3.717,0,0,0-1.88-.892,2.562,2.562,0,0,0-.894.086,8.089,8.089,0,0,0-2.449,1.459A6.984,6.984,0,0,1,19.88,25.95a3.867,3.867,0,0,1-2.636-.4,1.165,1.165,0,0,1-.437-.48.811.811,0,0,1,.224-.875l1.849-2c.215-.215.432-.429.653-.64a11.994,11.994,0,0,0-1.685.379,7.347,7.347,0,0,1-1.966.367,18.7,18.7,0,0,1-2.007-.314,30,30,0,0,1-5.335-1.928,11.821,11.821,0,0,0-4.894,7.1c.378.1.986.281,1.242.337,5.948,1.323,7.8,2.685,8.137,2.97a1.968,1.968,0,0,1,3.086.181,2.249,2.249,0,0,1,1.418-.5,2.65,2.65,0,0,1,.851.149,1.954,1.954,0,0,1,1.2,1.081,1.987,1.987,0,0,1,.828-.176,2.493,2.493,0,0,1,.989.218,2.112,2.112,0,0,1,1.168,2.36,1.989,1.989,0,0,1,.237-.013,2.355,2.355,0,0,1,2.076,3.472,3.743,3.743,0,0,0,2.048.548,1.311,1.311,0,0,0,.959-.417c.059-.084.121-.182.063-.252L26.264,35.26s-.276-.261-.185-.362.265.045.386.146c.855.713,1.9,1.79,1.9,1.79.018.012.087.148.472.217a1.743,1.743,0,0,0,1.326-.309,2,2,0,0,0,.291-.3c-.007.005-.012.013-.019.015a.892.892,0,0,0-.047-1.105l-1.959-2.2s-.281-.259-.185-.363.266.046.388.148c.62.519,1.5,1.4,2.337,2.222a1.6,1.6,0,0,0,1.88-.066,1.348,1.348,0,0,0,.7-1.228,1.4,1.4,0,0,0-.414-.817l-2.677-2.691s-.283-.242-.183-.364c.082-.1.265.045.386.146.853.713,3.161,2.83,3.161,2.83a1.623,1.623,0,0,0,1.816-.037,1.213,1.213,0,0,0,.6-.959,1.418,1.418,0,0,0-.45-1.091" transform="translate(-2.644 -14.556)" fill="#fff" fill-rule="evenodd"/>
    <path id="Trazado_1511" data-name="Trazado 1511" d="M35.78,30.882c-.068-.06-6.768-5.923-8.286-7.064a3.717,3.717,0,0,0-1.88-.892,2.562,2.562,0,0,0-.894.086,8.089,8.089,0,0,0-2.449,1.459A6.984,6.984,0,0,1,19.88,25.95a3.867,3.867,0,0,1-2.636-.4,1.165,1.165,0,0,1-.437-.48.811.811,0,0,1,.224-.875l1.849-2c.215-.215.432-.429.653-.64a11.994,11.994,0,0,0-1.685.379,7.347,7.347,0,0,1-1.966.367,18.7,18.7,0,0,1-2.007-.314,30,30,0,0,1-5.335-1.928,11.821,11.821,0,0,0-4.894,7.1c.378.1.986.281,1.242.337,5.948,1.323,7.8,2.685,8.137,2.97a1.968,1.968,0,0,1,3.086.181,2.249,2.249,0,0,1,1.418-.5,2.65,2.65,0,0,1,.851.149,1.954,1.954,0,0,1,1.2,1.081,1.987,1.987,0,0,1,.828-.176,2.493,2.493,0,0,1,.989.218,2.112,2.112,0,0,1,1.168,2.36,1.989,1.989,0,0,1,.237-.013,2.355,2.355,0,0,1,2.076,3.472,3.743,3.743,0,0,0,2.048.548,1.311,1.311,0,0,0,.959-.417c.059-.084.121-.182.063-.252L26.264,35.26s-.276-.261-.185-.362.265.045.386.146c.855.713,1.9,1.79,1.9,1.79.018.012.087.148.472.217a1.743,1.743,0,0,0,1.326-.309,2,2,0,0,0,.291-.3c-.007.005-.012.013-.019.015a.892.892,0,0,0-.047-1.105l-1.959-2.2s-.281-.259-.185-.363.266.046.388.148c.62.519,1.5,1.4,2.337,2.222a1.6,1.6,0,0,0,1.88-.066,1.348,1.348,0,0,0,.7-1.228,1.4,1.4,0,0,0-.414-.817l-2.677-2.691s-.283-.242-.183-.364c.082-.1.265.045.386.146.853.713,3.161,2.83,3.161,2.83a1.623,1.623,0,0,0,1.816-.037,1.213,1.213,0,0,0,.6-.959A1.418,1.418,0,0,0,35.78,30.882Z" transform="translate(-2.644 -14.556)" fill="none" stroke="#000" stroke-linejoin="bevel" stroke-width="0.216"/>
    <path id="Trazado_1512" data-name="Trazado 1512" d="M47.619,61.427a5.977,5.977,0,0,0-.928.206c-.033-.022.026-.188.064-.285s.587-1.74-.746-2.311a1.57,1.57,0,0,0-1.857.277c-.056.058-.081.054-.088-.021a1.47,1.47,0,0,0-1.033-1.366,2.016,2.016,0,0,0-2.272.81,1.454,1.454,0,1,0-.432,1.237c.008.008.012.021.007.049a1.92,1.92,0,0,0,1.2,2.207,1.431,1.431,0,0,0,1.408-.218c.116-.082.135-.047.118.061a1.37,1.37,0,0,0,1.026,1.471,1.3,1.3,0,0,0,1.525-.284c.13-.119.166-.1.172.084a1.836,1.836,0,1,0,1.835-1.919" transform="translate(-27.466 -41.689)" fill="#fff" fill-rule="evenodd"/>
    <path id="Trazado_1513" data-name="Trazado 1513" d="M47.619,61.427a5.977,5.977,0,0,0-.928.206c-.033-.022.026-.188.064-.285s.587-1.74-.746-2.311a1.57,1.57,0,0,0-1.857.277c-.056.058-.081.054-.088-.021a1.47,1.47,0,0,0-1.033-1.366,2.016,2.016,0,0,0-2.272.81,1.454,1.454,0,1,0-.432,1.237c.008.008.012.021.007.049a1.92,1.92,0,0,0,1.2,2.207,1.431,1.431,0,0,0,1.408-.218c.116-.082.135-.047.118.061a1.37,1.37,0,0,0,1.026,1.471,1.3,1.3,0,0,0,1.525-.284c.13-.119.166-.1.172.084a1.836,1.836,0,1,0,1.835-1.919Z" transform="translate(-27.466 -41.689)" fill="none" stroke="#000" stroke-linejoin="bevel" stroke-width="0.216"/>
    <path id="Trazado_1514" data-name="Trazado 1514" d="M35.71,27.418c-2.064-1.8-6.834-5.948-8.126-6.918a5.681,5.681,0,0,0-1.684-.98,2.782,2.782,0,0,0-.827-.128,3.481,3.481,0,0,0-1.05.177,8.6,8.6,0,0,0-2.471,1.565l-.041.033a6.824,6.824,0,0,1-2.11,1.343,3.579,3.579,0,0,1-.781.087,2,2,0,0,1-1.467-.472c-.037-.047-.013-.122.072-.231l.011-.014,1.816-1.957c1.422-1.422,2.765-2.765,5.857-2.836l.154,0a10.959,10.959,0,0,1,4.064.963,12.59,12.59,0,0,0,5.54,1.329,14.466,14.466,0,0,0,6.081-1.457c-.236-.2-.482-.392-.735-.582a13.386,13.386,0,0,1-5.341,1.213A11.786,11.786,0,0,1,29.489,17.3a11.672,11.672,0,0,0-4.424-1.045l-.175,0a7.682,7.682,0,0,0-5.043,1.791,9.989,9.989,0,0,0-2.517.459,6.817,6.817,0,0,1-1.773.34c-.228,0-.637-.021-.673-.022a34.528,34.528,0,0,1-6.377-1.767c-.26.184-.509.374-.753.567a31.493,31.493,0,0,0,6.913,2c.284.019.587.051.889.051a7.565,7.565,0,0,0,2-.372c.385-.108.81-.226,1.257-.312q-.179.176-.358.356l-1.845,2a.927.927,0,0,0-.253,1.02,1.294,1.294,0,0,0,.485.538,3.844,3.844,0,0,0,1.958.5,3.548,3.548,0,0,0,.781-.082,7.07,7.07,0,0,0,2.444-1.5,8.128,8.128,0,0,1,2.4-1.437,2.728,2.728,0,0,1,.669-.092,1.323,1.323,0,0,1,.173.01,3.608,3.608,0,0,1,1.817.867c1.514,1.138,8.215,7,8.281,7.057a1.289,1.289,0,0,1,.4.985,1.073,1.073,0,0,1-.535.855,1.629,1.629,0,0,1-.88.274,1.445,1.445,0,0,1-.776-.225c-.025-.02-2.321-2.125-3.165-2.832a.709.709,0,0,0-.4-.212.218.218,0,0,0-.175.083c-.133.164.016.391.191.54l2.682,2.7a1.271,1.271,0,0,1,.37.726,1.224,1.224,0,0,1-.637,1.112,1.728,1.728,0,0,1-.951.314,1.383,1.383,0,0,1-.765-.232l-.385-.379c-.7-.691-1.429-1.407-1.961-1.85a.713.713,0,0,0-.4-.207.227.227,0,0,0-.169.072c-.061.067-.1.188.048.389a1.358,1.358,0,0,0,.136.151l1.957,2.2a.75.75,0,0,1,.044.938l-.069.088a2.039,2.039,0,0,1-.182.175,1.568,1.568,0,0,1-.956.3,1.513,1.513,0,0,1-.265-.023.665.665,0,0,1-.385-.162l-.024-.025c-.107-.111-1.094-1.118-1.91-1.8a.675.675,0,0,0-.38-.2.233.233,0,0,0-.177.079c-.162.177.081.441.184.538l1.669,1.841a.391.391,0,0,1-.063.112c-.06.083-.262.285-.868.361a1.7,1.7,0,0,1-.222.013,3.812,3.812,0,0,1-1.634-.485,2.489,2.489,0,0,0-2.251-3.55l-.09,0a2.21,2.21,0,0,0-1.263-2.338,2.62,2.62,0,0,0-1.041-.229,2.114,2.114,0,0,0-.763.138A2.1,2.1,0,0,0,18.1,27.415a2.733,2.733,0,0,0-.894-.158,2.355,2.355,0,0,0-1.391.446,2.1,2.1,0,0,0-3.125-.176c-.519-.4-2.58-1.706-8.1-2.958-.267-.06-.88-.236-1.256-.346a8.861,8.861,0,0,0-.141.905s1.017.243,1.217.289c5.635,1.251,7.5,2.553,7.811,2.8A2.114,2.114,0,0,0,14.557,31.1a2.462,2.462,0,0,0,1.593,1.839,2.1,2.1,0,0,0,.752.146,1.932,1.932,0,0,0,.481-.06,2.448,2.448,0,0,0,2.139,1.4,1.861,1.861,0,0,0,.645-.115,2.485,2.485,0,0,0,4.085.789,4.7,4.7,0,0,0,2.108.629,2.671,2.671,0,0,0,.319-.02,1.933,1.933,0,0,0,1.43-.7,1.027,1.027,0,0,0,.087-.143,2.414,2.414,0,0,0,.675.106,2.275,2.275,0,0,0,1.363-.487,1.877,1.877,0,0,0,.8-1.169l0-.017a2.244,2.244,0,0,0,.456.047,2.533,2.533,0,0,0,1.4-.444,2.019,2.019,0,0,0,1-1.8,2.251,2.251,0,0,0,.461.048,2.418,2.418,0,0,0,1.312-.4,1.915,1.915,0,0,0,.911-1.483,2,2,0,0,0-.289-1.2,54.214,54.214,0,0,1,8.692-2.721,8.935,8.935,0,0,0-.121-.9,49.836,49.836,0,0,0-9.155,2.974" transform="translate(-2.316 -11.794)" fill="#384a8f" fill-rule="evenodd"/>
    <path id="Trazado_1515" data-name="Trazado 1515" d="M47.973,65.317a1.692,1.692,0,0,1-1.7-1.626c0-.078-.01-.286-.186-.286a.325.325,0,0,0-.207.109,1.2,1.2,0,0,1-.836.378,1.47,1.47,0,0,1-.551-.119c-.971-.393-.985-1.061-.945-1.329a.243.243,0,0,0-.035-.2l-.06-.054h-.06a.3.3,0,0,0-.169.068,1.42,1.42,0,0,1-.824.293,1.28,1.28,0,0,1-.46-.09,1.784,1.784,0,0,1-1.115-2.068.175.175,0,0,0-.056-.169l-.09-.075-.085.081a1.329,1.329,0,1,1,.394-1.124l.046.357.2-.3a1.843,1.843,0,0,1,2.121-.755,1.342,1.342,0,0,1,.94,1.25c.014.173.137.181.161.181a.217.217,0,0,0,.153-.08,1.341,1.341,0,0,1,.978-.413,1.878,1.878,0,0,1,.732.165c1.25.536.683,2.124.676,2.141-.107.263-.111.38-.01.447l.049.024h.037a.883.883,0,0,0,.242-.064,2.136,2.136,0,0,1,.667-.147h0a1.7,1.7,0,1,1,0,3.409" transform="translate(-27.821 -42.039)" fill="#fff" fill-rule="evenodd"/>
    <path id="Trazado_1516" data-name="Trazado 1516" d="M404.621,20.554a2.154,2.154,0,0,1-3.282,0,3.505,3.505,0,0,1-.576-2.157,3.487,3.487,0,0,1,.576-2.152,2.162,2.162,0,0,1,3.282,0,3.512,3.512,0,0,1,.572,2.152,3.531,3.531,0,0,1-.572,2.157m1.946-5.644a5.071,5.071,0,0,0-7.152,0,5.415,5.415,0,0,0-1.179,3.487,5.39,5.39,0,0,0,1.179,3.5,5.126,5.126,0,0,0,7.152,0,5.39,5.39,0,0,0,1.178-3.5,5.415,5.415,0,0,0-1.178-3.487" transform="translate(-288.919 -9.746)" fill="#384a8f" fill-rule="evenodd"/>
    <path id="Trazado_1517" data-name="Trazado 1517" d="M335.583,19.525a1.955,1.955,0,0,1-.7,1.687,2.548,2.548,0,0,1-1.472.463,1.343,1.343,0,0,1-.858-.279,1.083,1.083,0,0,1-.351-.9,1.114,1.114,0,0,1,.576-1.036,3.636,3.636,0,0,1,1.122-.333l.556-.1a4.1,4.1,0,0,0,.654-.169,2.456,2.456,0,0,0,.472-.234Zm1.237-5.318a5.963,5.963,0,0,0-2.734-.607,4.014,4.014,0,0,0-3.337,1.233,3.588,3.588,0,0,0-.689,2.013h2.356a1.759,1.759,0,0,1,.347-.856A1.554,1.554,0,0,1,334,15.56a2.534,2.534,0,0,1,1.186.219.82.82,0,0,1,.4.791.734.734,0,0,1-.526.694,3.882,3.882,0,0,1-.976.214l-.835.1a5.945,5.945,0,0,0-2.156.6,2.655,2.655,0,0,0-1.337,2.491,2.569,2.569,0,0,0,.831,2.051,3.3,3.3,0,0,0,2.106.724c5.327.238,5.267-2.807,5.316-3.441V16.5a2.335,2.335,0,0,0-1.195-2.3" transform="translate(-239.241 -9.866)" fill="#384a8f" fill-rule="evenodd"/>
    <path id="Trazado_1518" data-name="Trazado 1518" d="M298.775,15.767a1.587,1.587,0,0,1,1.345.564,2.09,2.09,0,0,1,.37.94h2.628a3.594,3.594,0,0,0-1.391-2.775,5.357,5.357,0,0,0-3.023-.785,4.412,4.412,0,0,0-3.4,1.332,5.276,5.276,0,0,0-1.235,3.726,5.2,5.2,0,0,0,1.117,3.454,4.3,4.3,0,0,0,3.485,1.332,4.2,4.2,0,0,0,3.577-1.6,3.937,3.937,0,0,0,.846-2.1h-2.619a2.206,2.206,0,0,1-.46,1.2,1.573,1.573,0,0,1-1.281.461A1.711,1.711,0,0,1,297,20.351a4.446,4.446,0,0,1-.253-1.642A4.854,4.854,0,0,1,297,16.988a1.765,1.765,0,0,1,1.776-1.221" transform="translate(-213.343 -9.947)" fill="#384a8f" fill-rule="evenodd"/>
    <path id="Trazado_1519" data-name="Trazado 1519" d="M278.069,13.711c-5.4,0-5.078,4.779-5.078,4.779v4.855h2.449V18.791a3.748,3.748,0,0,1,.281-1.658,2.02,2.02,0,0,1,1.972-.956c.073,0,.171,0,.29.01s.254.016.41.035V13.729c-.109-.007-.179-.01-.21-.013s-.07,0-.116,0" transform="translate(-198.051 -9.947)" fill="#384a8f" fill-rule="evenodd"/>
    <path id="Trazado_1520" data-name="Trazado 1520" d="M238.38,16.245a1.935,1.935,0,0,1,1.453-.531,2.13,2.13,0,0,1,1.444.5,2.031,2.031,0,0,1,.647,1.469h-4.191a2.526,2.526,0,0,1,.648-1.439m3.293,4.561a1.774,1.774,0,0,1-.335.37,2.09,2.09,0,0,1-1.369.372,2.322,2.322,0,0,1-1.3-.313,2.207,2.207,0,0,1-.992-1.944h6.777a12.279,12.279,0,0,0-.081-1.847,4.58,4.58,0,0,0-.741-1.924,3.8,3.8,0,0,0-1.608-1.377,5.311,5.311,0,0,0-2.187-.435A4.488,4.488,0,0,0,236.505,15a5.041,5.041,0,0,0-1.283,3.708,4.51,4.51,0,0,0,1.421,3.726,5.076,5.076,0,0,0,3.278,1.145,4.521,4.521,0,0,0,3.5-1.358,3.3,3.3,0,0,0,.85-1.412Z" transform="translate(-170.653 -9.945)" fill="#384a8f" fill-rule="evenodd"/>
    <path id="Trazado_1521" data-name="Trazado 1521" d="M196.273,23.258h-2.238V17.624a1.572,1.572,0,0,0-1.646-1.739,1.649,1.649,0,0,0-1.7,1.739v5.634h-2.239V17.624a1.558,1.558,0,0,0-1.628-1.739,1.64,1.64,0,0,0-1.7,1.739v5.634h-2.239v-5.58a3.84,3.84,0,0,1,3.935-4.085,3.444,3.444,0,0,1,2.782,1.3,3.564,3.564,0,0,1,2.781-1.3,3.736,3.736,0,0,1,3.883,4.085Z" transform="translate(-132.687 -9.862)" fill="#384a8f" fill-rule="evenodd"/>
    <path id="Trazado_1522" data-name="Trazado 1522" d="M368.684,12.968a1.8,1.8,0,0,1-1.57.769,1.718,1.718,0,0,1-1.541-.773,3.944,3.944,0,0,1-.507-2.125,3.733,3.733,0,0,1,.5-2,1.707,1.707,0,0,1,1.566-.807,1.86,1.86,0,0,1,1.23.444,3.2,3.2,0,0,1,.862,2.505,3.4,3.4,0,0,1-.538,1.989m2.938-10.006s-2.467-.264-2.467,1.718l0,2.624a2.945,2.945,0,0,0-1.066-1.028,3,3,0,0,0-1.5-.372,3.568,3.568,0,0,0-2.931,1.366,6.013,6.013,0,0,0-1.1,3.811,5.068,5.068,0,0,0,1.114,3.386,4.72,4.72,0,0,0,3.492,1.264c4.51,0,4.458-3.868,4.458-3.868Z" transform="translate(-263.033 -2.141)" fill="#384a8f" fill-rule="evenodd"/>
    <path id="Trazado_1523" data-name="Trazado 1523" d="M253.893,68.057q0,2.449,1.415,2.716a1.93,1.93,0,0,0,2.086-.658,2.644,2.644,0,0,0,.46-1.223,5.182,5.182,0,0,0,.018-1.65,3.281,3.281,0,0,0-.584-1.457,1.552,1.552,0,0,0-1.344-.639,1.631,1.631,0,0,0-1.626.886,4.617,4.617,0,0,0-.425,2.025m4.032,4.081v-.6a2.708,2.708,0,0,1-1.716,1.242,3.5,3.5,0,0,1-2.138-.179,3.973,3.973,0,0,1-1.823-1.578,5.455,5.455,0,0,1-.759-3.038,5.873,5.873,0,0,1,1.007-3.567,3.867,3.867,0,0,1,3.237-1.367,4.493,4.493,0,0,1,3.147.923,3.95,3.95,0,0,1,1.449,3.407v5.007a4.179,4.179,0,0,1-4.6,4.3,4.03,4.03,0,0,1-4.031-3.053h2.581a1.975,1.975,0,0,0,2.032.9,1.937,1.937,0,0,0,1.063-.691,2.91,2.91,0,0,0,.547-1.706" transform="translate(-182.454 -45.741)" fill="#00b0f0" fill-rule="evenodd"/>
    <path id="Trazado_1524" data-name="Trazado 1524" d="M189.445,68.149a3.589,3.589,0,0,0-.541-2.132,1.8,1.8,0,0,0-1.548-.746,1.769,1.769,0,0,0-1.513.746,3.6,3.6,0,0,0-.5,2.132,3.19,3.19,0,0,0,.54,2.026,1.792,1.792,0,0,0,1.548.747,1.723,1.723,0,0,0,1.475-.747,3.377,3.377,0,0,0,.541-2.026m-4.1,6.628a1.151,1.151,0,0,1-.362.852,1.182,1.182,0,0,1-.864.356h-1.223V67.473a3.927,3.927,0,0,1,1.476-3.393,4.927,4.927,0,0,1,3.2-.9,4.3,4.3,0,0,1,3.206,1.326,5.233,5.233,0,0,1,1.15,3.541,5.734,5.734,0,0,1-1.079,3.624,3.392,3.392,0,0,1-2.773,1.35,3.722,3.722,0,0,1-1.583-.319,2.688,2.688,0,0,1-1.152-1.1Z" transform="translate(-132.687 -45.834)" fill="#00b0f0" fill-rule="evenodd"/>
    <path id="Trazado_1525" data-name="Trazado 1525" d="M223.965,69.234a1.954,1.954,0,0,1-.7,1.687,2.549,2.549,0,0,1-1.472.462,1.343,1.343,0,0,1-.857-.278,1.082,1.082,0,0,1-.353-.9,1.116,1.116,0,0,1,.577-1.036,3.636,3.636,0,0,1,1.122-.332l.556-.1a3.909,3.909,0,0,0,.653-.169,2.419,2.419,0,0,0,.473-.234Zm1.238-5.318a5.981,5.981,0,0,0-2.733-.607,4.016,4.016,0,0,0-3.338,1.232,3.585,3.585,0,0,0-.689,2.013H220.8a1.755,1.755,0,0,1,.347-.856,1.554,1.554,0,0,1,1.239-.428,2.537,2.537,0,0,1,1.186.218.821.821,0,0,1,.4.792.735.735,0,0,1-.527.694,3.874,3.874,0,0,1-.976.214l-.835.1a5.962,5.962,0,0,0-2.156.6,2.654,2.654,0,0,0-1.338,2.491,2.569,2.569,0,0,0,.831,2.051,3.3,3.3,0,0,0,2.106.724c5.326.238,5.266-2.807,5.314-3.44V66.211a2.333,2.333,0,0,0-1.194-2.295" transform="translate(-158.263 -45.93)" fill="#00b0f0" fill-rule="evenodd"/>
    <path id="Trazado_1526" data-name="Trazado 1526" d="M293.481,70.075a2.152,2.152,0,0,1-3.281,0,4.312,4.312,0,0,1,0-4.307,2.161,2.161,0,0,1,3.281,0,4.343,4.343,0,0,1,0,4.307m1.947-5.643a5.072,5.072,0,0,0-7.153,0,5.77,5.77,0,0,0,0,6.989,5.129,5.129,0,0,0,7.153,0,5.78,5.78,0,0,0,0-6.989" transform="translate(-208.287 -45.675)" fill="#00b0f0" fill-rule="evenodd"/>
  </g>
</svg>
