<svg id="bt_ico_nuevo" xmlns="http://www.w3.org/2000/svg" width="36" height="36" viewBox="0 0 36 36">
  <rect id="Rectángulo_15" data-name="Rectángulo 15" width="36" height="36" rx="4" fill="#189dff"/>
  <path id="message-regular" d="M7.813,17.969a2.344,2.344,0,0,1,2.344,2.344v.781l3.54-2.656a2.351,2.351,0,0,1,1.406-.469h6.772a.784.784,0,0,0,.781-.781V3.125a.784.784,0,0,0-.781-.781H3.125a.784.784,0,0,0-.781.781V17.188a.784.784,0,0,0,.781.781Zm2.344,6.055-.01.01-.249.186-.835.625a.789.789,0,0,1-.82.073.769.769,0,0,1-.43-.7V20.313H3.125A3.128,3.128,0,0,1,0,17.188V3.125A3.128,3.128,0,0,1,3.125,0h18.75A3.128,3.128,0,0,1,25,3.125V17.188a3.128,3.128,0,0,1-3.125,3.125H15.1Z" transform="translate(5.5 5.502)" fill="#fff"/>
</svg>
