<svg xmlns="http://www.w3.org/2000/svg" width="24.568" height="19.599" viewBox="0 0 24.568 19.599">
  <path id="Trazado_2284" d="M24.568,15.546a4.373,4.373,0,0,1-.289,1.549,4.061,4.061,0,0,1-.8,1.313,3.536,3.536,0,0,1-1.207.876,3.476,3.476,0,0,1-1.424.314H3.725A3.44,3.44,0,0,1,2.3,19.284a3.536,3.536,0,0,1-1.207-.876,3.891,3.891,0,0,1-.8-1.313A4.156,4.156,0,0,1,0,15.546V4.052A4.114,4.114,0,0,1,.289,2.5a3.891,3.891,0,0,1,.8-1.313A3.536,3.536,0,0,1,2.3.314,3.26,3.26,0,0,1,3.715,0H20.843a3.3,3.3,0,0,1,1.424.314,3.536,3.536,0,0,1,1.207.876,4.061,4.061,0,0,1,.8,1.313,4.327,4.327,0,0,1,.289,1.549V15.546Zm-9.823,2.267h6.1a1.913,1.913,0,0,0,.795-.168,2.019,2.019,0,0,0,.681-.494,2.358,2.358,0,0,0,.609-1.605V4.052a2.517,2.517,0,0,0-.155-.876,2.487,2.487,0,0,0-.454-.73,2.019,2.019,0,0,0-.681-.494,1.913,1.913,0,0,0-.795-.168H3.715a1.985,1.985,0,0,0-.795.168,2.086,2.086,0,0,0-.671.494,2.289,2.289,0,0,0-.454.73,2.517,2.517,0,0,0-.155.876V15.546a2.41,2.41,0,0,0,.155.864,2.222,2.222,0,0,0,.454.741,2.086,2.086,0,0,0,.671.494,1.985,1.985,0,0,0,.795.168ZM5.83,7.24a1.053,1.053,0,0,0,0,1.381.907.907,0,0,0,.64.292,2.382,2.382,0,0,1,1.641.64,2.9,2.9,0,0,1,.867,1.661,2.989,2.989,0,0,1-.33,1.863,2.568,2.568,0,0,1-1.362,1.19v.505a.924.924,0,0,1-.237.629.776.776,0,0,1-1.156,0,.924.924,0,0,1-.237-.629v-.505a2.393,2.393,0,0,1-.691-.393,2.5,2.5,0,0,1-.557-.606,3.358,3.358,0,0,1-.351-.763,2.857,2.857,0,0,1-.124-.842.976.976,0,0,1,.237-.629.8.8,0,0,1,.588-.258.779.779,0,0,1,.578.258.924.924,0,0,1,.237.629.982.982,0,0,0,.557.909.857.857,0,0,0,.98-.213,1.05,1.05,0,0,0,.2-1.066.928.928,0,0,0-.836-.606,2.393,2.393,0,0,1-1.641-.651,2.764,2.764,0,0,1-.856-1.65,2.915,2.915,0,0,1,.32-1.863,2.558,2.558,0,0,1,1.362-1.19V4.827A.924.924,0,0,1,5.892,4.2a.754.754,0,0,1,1.156,0,.924.924,0,0,1,.237.629v.505a2.591,2.591,0,0,1,.7.393,2.678,2.678,0,0,1,.547.606,2.734,2.734,0,0,1,.351.752,2.97,2.97,0,0,1,.124.842.924.924,0,0,1-.237.629.791.791,0,0,1-.578.269A.813.813,0,0,1,7.6,8.553a.976.976,0,0,1-.237-.629,1.113,1.113,0,0,0-.062-.37,1.045,1.045,0,0,0-.2-.314.836.836,0,0,0-.3-.213.725.725,0,0,0-.341-.079.864.864,0,0,0-.64.292ZM21.05,4.714a.951.951,0,0,1,0,1.257.779.779,0,0,1-.578.258H12.279a.779.779,0,0,1-.578-.258.951.951,0,0,1,0-1.257.779.779,0,0,1,.578-.258h8.193A.779.779,0,0,1,21.05,4.714Zm0,8.913a.9.9,0,0,1,.237.629.924.924,0,0,1-.237.629.779.779,0,0,1-.578.258H12.279a.779.779,0,0,1-.578-.258.924.924,0,0,1-.237-.629.9.9,0,0,1,.237-.629.791.791,0,0,1,.578-.269h8.193a.791.791,0,0,1,.578.269Zm0-4.456a.951.951,0,0,1,0,1.257.779.779,0,0,1-.578.258H12.279a.779.779,0,0,1-.578-.258.951.951,0,0,1,0-1.257.779.779,0,0,1,.578-.258h8.193A.779.779,0,0,1,21.05,9.171Z" transform="translate(0 0)" fill="#939fad" fill-rule="evenodd"/>
</svg>
