<svg xmlns="http://www.w3.org/2000/svg" xmlns:xlink="http://www.w3.org/1999/xlink" width="49.164" height="48.662" viewBox="0 0 49.164 48.662">
  <defs>
    <clipPath id="clip-path">
      <rect id="Rectángulo_637" data-name="Rectángulo 637" width="49.164" height="48.662" fill="none"/>
    </clipPath>
  </defs>
  <g id="Grupo_4047" data-name="Grupo 4047" clip-path="url(#clip-path)">
    <path id="Trazado_1487" data-name="Trazado 1487" d="M159.436,200.179h-3.824a.531.531,0,0,0-.525.449l-1.546,9.806a.319.319,0,0,0,.315.368h1.962a.372.372,0,0,0,.367-.314l.439-2.78a.531.531,0,0,1,.525-.449h1.21c2.519,0,3.973-1.219,4.353-3.635a2.945,2.945,0,0,0-.488-2.468,3.548,3.548,0,0,0-2.787-.977m.441,3.581c-.209,1.373-1.257,1.373-2.271,1.373h-.577l.4-2.563a.319.319,0,0,1,.315-.269h.265c.69,0,1.342,0,1.678.393a1.276,1.276,0,0,1,.186,1.066" transform="translate(-126.261 -164.618)" fill="#008ad8"/>
    <path id="Trazado_1488" data-name="Trazado 1488" d="M5.9,200.179H2.076a.531.531,0,0,0-.525.449L0,210.433a.319.319,0,0,0,.315.368H2.145a.531.531,0,0,0,.525-.449l.417-2.645a.531.531,0,0,1,.525-.449h1.21c2.519,0,3.973-1.219,4.353-3.635a2.945,2.945,0,0,0-.488-2.468,3.547,3.547,0,0,0-2.787-.977m.441,3.581c-.209,1.373-1.257,1.373-2.272,1.373H3.493l.4-2.563a.319.319,0,0,1,.315-.269h.264c.69,0,1.342,0,1.678.393a1.277,1.277,0,0,1,.186,1.066" transform="translate(-0.001 -164.618)" fill="#002575"/>
    <path id="Trazado_1489" data-name="Trazado 1489" d="M57.462,219.294H55.63a.319.319,0,0,0-.315.269l-.08.512-.128-.185a2.605,2.605,0,0,0-2.163-.768,4.211,4.211,0,0,0-4.088,3.683,3.458,3.458,0,0,0,.682,2.813,2.866,2.866,0,0,0,2.306.931,3.506,3.506,0,0,0,2.535-1.048l-.082.509a.319.319,0,0,0,.315.369h1.649a.531.531,0,0,0,.525-.448l.99-6.269a.319.319,0,0,0-.315-.368m-2.552,3.564a2.041,2.041,0,0,1-2.067,1.749,1.418,1.418,0,0,1-1.517-1.78,2.049,2.049,0,0,1,2.052-1.762,1.543,1.543,0,0,1,1.221.5,1.577,1.577,0,0,1,.31,1.295" transform="translate(-40.132 -180.195)" fill="#002575"/>
    <path id="Trazado_1490" data-name="Trazado 1490" d="M211,219.294h-1.831a.319.319,0,0,0-.315.269l-.08.512-.128-.185a2.605,2.605,0,0,0-2.163-.768,4.211,4.211,0,0,0-4.088,3.683,3.458,3.458,0,0,0,.682,2.813,2.866,2.866,0,0,0,2.306.931,3.506,3.506,0,0,0,2.535-1.048l-.082.509a.319.319,0,0,0,.315.369H209.8a.531.531,0,0,0,.525-.448l.99-6.269a.319.319,0,0,0-.315-.368m-2.552,3.564a2.042,2.042,0,0,1-2.067,1.749,1.418,1.418,0,0,1-1.517-1.78,2.049,2.049,0,0,1,2.052-1.762,1.543,1.543,0,0,1,1.221.5,1.577,1.577,0,0,1,.311,1.295" transform="translate(-166.392 -180.195)" fill="#008ad8"/>
    <path id="Trazado_1491" data-name="Trazado 1491" d="M112.953,220.092h-1.841a.531.531,0,0,0-.439.233l-2.539,3.739-1.076-3.593a.531.531,0,0,0-.509-.379h-1.809a.319.319,0,0,0-.3.422l2.027,5.949-1.906,2.69a.319.319,0,0,0,.26.5h1.839a.532.532,0,0,0,.437-.229l6.121-8.834a.319.319,0,0,0-.262-.5" transform="translate(-85.87 -180.993)" fill="#002575"/>
    <path id="Trazado_1492" data-name="Trazado 1492" d="M255.951,200.448l-1.569,9.985a.319.319,0,0,0,.315.368h1.579a.531.531,0,0,0,.525-.449l1.548-9.806a.319.319,0,0,0-.315-.368h-1.766a.319.319,0,0,0-.315.269" transform="translate(-209.188 -164.618)" fill="#008ad8"/>
    <path id="Trazado_1493" data-name="Trazado 1493" d="M93.317,8.061c.387-2.468,0-4.148-1.338-5.669C90.51.718,87.855,0,84.457,0H74.6A1.411,1.411,0,0,0,73.2,1.191L69.1,27.231a.847.847,0,0,0,.836.978H76.02l-.42,2.665a.741.741,0,0,0,.732.856h5.132a1.234,1.234,0,0,0,1.219-1.042l.05-.261L83.7,24.3l.062-.339a1.234,1.234,0,0,1,1.219-1.042h.768c4.972,0,8.864-2.02,10-7.861.475-2.441.23-4.478-1.027-5.91a4.887,4.887,0,0,0-1.4-1.084" transform="translate(-56.812 0)" fill="#008ad8"/>
    <path id="Trazado_1494" data-name="Trazado 1494" d="M93.317,8.061c.387-2.468,0-4.148-1.338-5.669C90.51.718,87.855,0,84.457,0H74.6A1.411,1.411,0,0,0,73.2,1.191L69.1,27.231a.847.847,0,0,0,.836.978H76.02l1.529-9.7-.047.3a1.406,1.406,0,0,1,1.389-1.191h2.894c5.683,0,10.133-2.309,11.433-8.986.039-.2.071-.389.1-.578" transform="translate(-56.812 0)" fill="#001a57"/>
    <path id="Trazado_1495" data-name="Trazado 1495" d="M79.192,8.094a1.234,1.234,0,0,1,1.219-1.042h7.73a16.115,16.115,0,0,1,2.55.186q.335.054.651.124t.614.157q.149.043.292.091a6.957,6.957,0,0,1,1.069.451c.387-2.468,0-4.148-1.338-5.669C90.51.718,87.855,0,84.457,0H74.6A1.411,1.411,0,0,0,73.2,1.191L69.1,27.231a.847.847,0,0,0,.836.978H76.02l1.529-9.7Z" transform="translate(-56.812 0)" fill="#002575"/>
  </g>
</svg>
