<svg xmlns="http://www.w3.org/2000/svg" xmlns:xlink="http://www.w3.org/1999/xlink" width="48.489" height="51.187" viewBox="0 0 48.489 51.187">
  <defs>
    <clipPath id="clip-path">
      <rect id="Rectángulo_147" data-name="Rectángulo 147" width="48.489" height="51.187" fill="none"/>
    </clipPath>
  </defs>
  <g id="Grupo_167" data-name="Grupo 167" clip-path="url(#clip-path)">
    <path id="Trazado_283" data-name="Trazado 283" d="M144.01,51.187h-31.9a4.171,4.171,0,0,1-4.158-4.158V4.159A4.171,4.171,0,0,1,112.106,0h23.305l12.757,12.747V47.028a4.171,4.171,0,0,1-4.158,4.158" transform="translate(-99.68)" fill="#e51000"/>
    <path id="Trazado_284" data-name="Trazado 284" d="M455.1,0h-.947V11.568a2.233,2.233,0,0,0,2.227,2.227h11.477V12.747Z" transform="translate(-419.37)" fill="#a50202"/>
    <path id="Trazado_285" data-name="Trazado 285" d="M55.914,266.46H22.362a.8.8,0,0,0-.8.8v13.468a.8.8,0,0,0,.8.8H55.914a.8.8,0,0,0,.8-.8V267.264a.8.8,0,0,0-.8-.8" transform="translate(-19.907 -246.051)" fill="#fff"/>
    <path id="Trazado_286" data-name="Trazado 286" d="M36.007,244.9H2.455A2.457,2.457,0,0,0,0,247.357v13.468a2.458,2.458,0,0,0,2.455,2.455H36.007a2.458,2.458,0,0,0,2.455-2.455V247.357a2.457,2.457,0,0,0-2.455-2.455m.8,15.923a.8.8,0,0,1-.8.8H2.455a.8.8,0,0,1-.8-.8V247.357a.8.8,0,0,1,.8-.8H36.007a.8.8,0,0,1,.8.8Z" transform="translate(0 -226.145)" fill="#ff4343"/>
    <path id="Trazado_287" data-name="Trazado 287" d="M75.115,396.081a1.1,1.1,0,1,1-1.1,1.1,1.089,1.089,0,0,1,1.1-1.1" transform="translate(-68.347 -365.744)" fill="#ff4343"/>
    <path id="Trazado_288" data-name="Trazado 288" d="M121.272,300.335a.908.908,0,0,1,1.038-1.025h2.582a3.145,3.145,0,1,1,.074,6.288h-1.717v2.322a.988.988,0,1,1-1.977,0Zm1.977.951v2.335h1.668a1.11,1.11,0,0,0,1.211-1.161c0-.741-.494-1.174-1.4-1.174Z" transform="translate(-111.984 -276.385)" fill="#ff4343"/>
    <path id="Trazado_289" data-name="Trazado 289" d="M232.4,300.583c0-.741.4-1.112,1.235-1.112h2.261c2.631,0,3.978,2.446,3.978,4.842s-1.618,4.756-4.212,4.756h-2.211c-.791,0-1.05-.148-1.05-1.038Zm1.989.865v5.645h1.223c1.445,0,2.224-1.384,2.224-2.779,0-1.458-.692-2.866-2.063-2.866Z" transform="translate(-214.596 -276.534)" fill="#ff4343"/>
    <path id="Trazado_290" data-name="Trazado 290" d="M349.97,300.583c0-.741.358-1.112,1.038-1.112h3.372c.679,0,1,.309,1,.988a.876.876,0,0,1-1,.988h-2.421v1.878h1.7c.667,0,.976.333.976,1a.863.863,0,0,1-.976.988h-1.7v2.854c0,.593-.334.9-1,.9-.642,0-.988-.309-.988-.9Z" transform="translate(-323.165 -276.534)" fill="#ff4343"/>
  </g>
</svg>
