<svg xmlns="http://www.w3.org/2000/svg" width="22.857" height="20" viewBox="0 0 22.857 20">
  <path id="right-to-bracket-solid" d="M9.728,35.3l5.482,5.482a1.724,1.724,0,0,1,0,2.438L9.728,48.7a1.515,1.515,0,0,1-2.585-1.071V44.857H1.429A1.427,1.427,0,0,1,0,43.429V40.571a1.427,1.427,0,0,1,1.429-1.429H7.143V36.371A1.515,1.515,0,0,1,9.728,35.3Zm5.987,13.844h2.857A1.427,1.427,0,0,0,20,47.714V36.286a1.427,1.427,0,0,0-1.429-1.429H15.714a1.429,1.429,0,1,1,0-2.857h2.857a4.287,4.287,0,0,1,4.286,4.286V47.714A4.287,4.287,0,0,1,18.571,52H15.714a1.429,1.429,0,1,1,0-2.857Z" transform="translate(0 -32)" fill="#4a61ce"/>
</svg>