<svg id="Grupo_2954" data-name="Grupo 2954" xmlns="http://www.w3.org/2000/svg" xmlns:xlink="http://www.w3.org/1999/xlink" width="23.389" height="22.877" viewBox="0 0 23.389 22.877">
  <defs>
    <clipPath id="clip-path">
      <rect id="Rectángulo_492" data-name="Rectángulo 492" width="23.389" height="22.877" transform="translate(0 0)" fill="#939fad"/>
    </clipPath>
  </defs>
  <g id="Grupo_2953" data-name="Grupo 2953" clip-path="url(#clip-path)">
    <path id="Trazado_1196" data-name="Trazado 1196" d="M11.692,16.136a8.068,8.068,0,1,1,8.069-8.069h0a8.068,8.068,0,0,1-8.067,8.069ZM11.694,2a6.068,6.068,0,0,0,0,12.136h0A6.068,6.068,0,0,0,11.694,2" fill="#939fad"/>
    <path id="Trazado_1197" data-name="Trazado 1197" d="M22.389,22.877a1,1,0,0,1-.9-.564A10.876,10.876,0,0,0,6.962,17.251,10.919,10.919,0,0,0,1.9,22.313a1,1,0,0,1-1.8-.872A12.934,12.934,0,0,1,6.092,15.45a12.877,12.877,0,0,1,17.2,5.991,1,1,0,0,1-.9,1.436" fill="#939fad"/>
  </g>
</svg>
