<svg xmlns="http://www.w3.org/2000/svg" width="21.411" height="21.219" viewBox="0 0 21.411 21.219">
  <g id="Grupo_8079" data-name="Grupo 8079" transform="translate(16492 17829.437)">
    <path id="Trazado_927" data-name="Trazado 927" d="M21.231,251.049H8.954a.909.909,0,0,1,0-1.819H21.231a.909.909,0,0,1,0,1.819" transform="translate(-16492.729 -18077.15)" fill="#939fad"/>
    <path id="Trazado_928" data-name="Trazado 928" d="M3.941,252.413H.909A.909.909,0,0,1,0,251.5v-3.031a.909.909,0,0,1,.909-.909H3.941a.909.909,0,0,1,.909.909V251.5a.909.909,0,0,1-.909.909m-2.122-1.819H3.032v-1.212H1.819Z" transform="translate(-16492 -18077)" fill="#939fad"/>
    <path id="Trazado_929" data-name="Trazado 929" d="M21.231,260.049H8.954a.909.909,0,1,1,0-1.819H21.231a.909.909,0,1,1,0,1.819" transform="translate(-16492.729 -18077.967)" fill="#939fad"/>
    <path id="Trazado_930" data-name="Trazado 930" d="M3.941,261.413H.909A.909.909,0,0,1,0,260.5v-3.031a.909.909,0,0,1,.909-.909H3.941a.909.909,0,0,1,.909.909V260.5a.909.909,0,0,1-.909.909m-2.122-1.819H3.032v-1.212H1.819Z" transform="translate(-16492 -18077.814)" fill="#939fad"/>
    <path id="Trazado_931" data-name="Trazado 931" d="M21.231,269.049H8.954a.909.909,0,1,1,0-1.819H21.231a.909.909,0,1,1,0,1.819" transform="translate(-16492.729 -18078.781)" fill="#939fad"/>
    <path id="Trazado_932" data-name="Trazado 932" d="M3.941,270.413H.909A.909.909,0,0,1,0,269.5v-3.031a.909.909,0,0,1,.909-.909H3.941a.909.909,0,0,1,.909.909V269.5a.909.909,0,0,1-.909.909m-2.122-1.819H3.032v-1.212H1.819Z" transform="translate(-16492 -18078.631)" fill="#939fad"/>
  </g>
</svg>
