<svg id="Componente_15_1" data-name="Componente 15 – 1" xmlns="http://www.w3.org/2000/svg" width="20.59" height="20.404" viewBox="0 0 20.59 20.404">
  <g id="Grupo_8052" data-name="Grupo 8052" transform="translate(16492 17829.438)">
    <path id="Trazado_928" data-name="Trazado 928" d="M3.79,252.226H.874A.874.874,0,0,1,0,251.352v-2.915a.874.874,0,0,1,.874-.874H3.79a.874.874,0,0,1,.874.874v2.915a.874.874,0,0,1-.874.874m-2.041-1.749H2.915v-1.166H1.749Z" transform="translate(-16492 -18077)" fill="#939fad"/>
    <path id="Trazado_930" data-name="Trazado 930" d="M3.79,261.226H.874A.874.874,0,0,1,0,260.352v-2.915a.874.874,0,0,1,.874-.874H3.79a.874.874,0,0,1,.874.874v2.915a.874.874,0,0,1-.874.874m-2.041-1.749H2.915v-1.166H1.749Z" transform="translate(-16492 -18078.131)" fill="#939fad"/>
    <path id="Trazado_932" data-name="Trazado 932" d="M3.79,270.226H.874A.874.874,0,0,1,0,269.352v-2.915a.874.874,0,0,1,.874-.874H3.79a.874.874,0,0,1,.874.874v2.915a.874.874,0,0,1-.874.874m-2.041-1.749H2.915v-1.166H1.749Z" transform="translate(-16492 -18079.26)" fill="#939fad"/>
  </g>
  <g id="Grupo_8053" data-name="Grupo 8053" transform="translate(16507.926 17829.438)">
    <path id="Trazado_928-2" data-name="Trazado 928" d="M3.79,252.226H.874A.874.874,0,0,1,0,251.352v-2.915a.874.874,0,0,1,.874-.874H3.79a.874.874,0,0,1,.874.874v2.915a.874.874,0,0,1-.874.874m-2.041-1.749H2.915v-1.166H1.749Z" transform="translate(-16492 -18077)" fill="#939fad"/>
    <path id="Trazado_930-2" data-name="Trazado 930" d="M3.79,261.226H.874A.874.874,0,0,1,0,260.352v-2.915a.874.874,0,0,1,.874-.874H3.79a.874.874,0,0,1,.874.874v2.915a.874.874,0,0,1-.874.874m-2.041-1.749H2.915v-1.166H1.749Z" transform="translate(-16492 -18078.131)" fill="#939fad"/>
    <path id="Trazado_932-2" data-name="Trazado 932" d="M3.79,270.226H.874A.874.874,0,0,1,0,269.352v-2.915a.874.874,0,0,1,.874-.874H3.79a.874.874,0,0,1,.874.874v2.915a.874.874,0,0,1-.874.874m-2.041-1.749H2.915v-1.166H1.749Z" transform="translate(-16492 -18079.26)" fill="#939fad"/>
  </g>
  <g id="Grupo_8054" data-name="Grupo 8054" transform="translate(16499.926 17829.438)">
    <path id="Trazado_928-3" data-name="Trazado 928" d="M3.79,252.226H.874A.874.874,0,0,1,0,251.352v-2.915a.874.874,0,0,1,.874-.874H3.79a.874.874,0,0,1,.874.874v2.915a.874.874,0,0,1-.874.874m-2.041-1.749H2.915v-1.166H1.749Z" transform="translate(-16492 -18077)" fill="#939fad"/>
    <path id="Trazado_930-3" data-name="Trazado 930" d="M3.79,261.226H.874A.874.874,0,0,1,0,260.352v-2.915a.874.874,0,0,1,.874-.874H3.79a.874.874,0,0,1,.874.874v2.915a.874.874,0,0,1-.874.874m-2.041-1.749H2.915v-1.166H1.749Z" transform="translate(-16492 -18078.131)" fill="#939fad"/>
    <path id="Trazado_932-3" data-name="Trazado 932" d="M3.79,270.226H.874A.874.874,0,0,1,0,269.352v-2.915a.874.874,0,0,1,.874-.874H3.79a.874.874,0,0,1,.874.874v2.915a.874.874,0,0,1-.874.874m-2.041-1.749H2.915v-1.166H1.749Z" transform="translate(-16492 -18079.26)" fill="#939fad"/>
  </g>
</svg>
