<svg xmlns="http://www.w3.org/2000/svg" xmlns:xlink="http://www.w3.org/1999/xlink" width="68" height="68" viewBox="0 0 68 68">
  <defs>
    <clipPath id="clip-path">
      <rect id="Rectángulo_183" data-name="Rectángulo 183" width="35.831" height="34.328" fill="#fff"/>
    </clipPath>
  </defs>
  <g id="Grupo_278" data-name="Grupo 278" transform="translate(-673 -231)">
    <g id="Trazado_1260" data-name="Trazado 1260" transform="translate(673 231)" fill="#189dff00">
      <path d="M 34 67.5 C 29.47731018066406 67.5 25.09016990661621 66.61434173583984 20.96043968200684 64.86760711669922 C 16.97134971618652 63.18035888671875 13.38866996765137 60.76482009887695 10.31192016601562 57.68807983398438 C 7.235179901123047 54.611328125 4.819640159606934 51.02864837646484 3.132390022277832 47.03955841064453 C 1.3856600522995 42.90982818603516 0.5 38.52268981933594 0.5 34 C 0.5 29.47731018066406 1.3856600522995 25.09016990661621 3.132390022277832 20.96043968200684 C 4.819640159606934 16.97134971618652 7.235179901123047 13.38866996765137 10.31192016601562 10.31192016601562 C 13.38866996765137 7.235179901123047 16.97134971618652 4.819640159606934 20.96043968200684 3.132390022277832 C 25.09016990661621 1.3856600522995 29.47731018066406 0.5 34 0.5 C 38.52268981933594 0.5 42.90982818603516 1.3856600522995 47.03955841064453 3.132390022277832 C 51.02864837646484 4.819640159606934 54.611328125 7.235179901123047 57.68807983398438 10.31192016601562 C 60.76482009887695 13.38866996765137 63.18035888671875 16.97134971618652 64.86760711669922 20.96043968200684 C 66.61434173583984 25.09016990661621 67.5 29.47731018066406 67.5 34 C 67.5 38.52268981933594 66.61434173583984 42.90982818603516 64.86760711669922 47.03955841064453 C 63.18035888671875 51.02864837646484 60.76482009887695 54.611328125 57.68807983398438 57.68807983398438 C 54.611328125 60.76482009887695 51.02864837646484 63.18035888671875 47.03955841064453 64.86760711669922 C 42.90982818603516 66.61434173583984 38.52268981933594 67.5 34 67.5 Z" stroke="none"/>
      <path d="M 34 1 C 29.54458999633789 1 25.22298049926758 1.872383117675781 21.15522003173828 3.592887878417969 C 17.2257194519043 5.254928588867188 13.69646072387695 7.634490966796875 10.66548156738281 10.66548156738281 C 7.634490966796875 13.69646072387695 5.254928588867188 17.2257194519043 3.592887878417969 21.15522003173828 C 1.872383117675781 25.22298049926758 1 29.54458999633789 1 34 C 1 38.45541000366211 1.872383117675781 42.77701950073242 3.592887878417969 46.84477996826172 C 5.254928588867188 50.7742805480957 7.634490966796875 54.30353927612305 10.66548156738281 57.33451843261719 C 13.69646072387695 60.36550903320312 17.2257194519043 62.74507141113281 21.15522003173828 64.40711212158203 C 25.22298049926758 66.12761688232422 29.54458999633789 67 34 67 C 38.45541000366211 67 42.77701950073242 66.12761688232422 46.84477996826172 64.40711212158203 C 50.7742805480957 62.74507141113281 54.30353927612305 60.36550903320312 57.33451843261719 57.33451843261719 C 60.36550903320312 54.30353927612305 62.74507141113281 50.7742805480957 64.40711212158203 46.84477996826172 C 66.12761688232422 42.77701950073242 67 38.45541000366211 67 34 C 67 29.54458999633789 66.12761688232422 25.22298049926758 64.40711212158203 21.15522003173828 C 62.74507141113281 17.2257194519043 60.36550903320312 13.69646072387695 57.33451843261719 10.66548156738281 C 54.30353927612305 7.634490966796875 50.7742805480957 5.254928588867188 46.84477996826172 3.592887878417969 C 42.77701950073242 1.872383117675781 38.45541000366211 1 34 1 M 34 0 C 52.77767944335938 0 68 15.22232055664062 68 34 C 68 52.77767944335938 52.77767944335938 68 34 68 C 15.22232055664062 68 0 52.77767944335938 0 34 C 0 15.22232055664062 15.22232055664062 0 34 0 Z" stroke="none" fill="#e2e5e9"/>
    </g>
    <g id="Grupo_269" data-name="Grupo 269" transform="translate(687.586 244.62)">
      <g id="Grupo_268" data-name="Grupo 268" transform="translate(0 0)" clip-path="url(#clip-path)">
        <path id="Trazado_382" data-name="Trazado 382" d="M23.907,20.234a5.271,5.271,0,1,1-5.271-5.271,5.271,5.271,0,0,1,5.271,5.271" transform="translate(1.031 1.155)" fill="#fff"/>
        <path id="Trazado_383" data-name="Trazado 383" d="M12.6,5.075H7.522V0H5.075V5.075H0V7.522H5.075V12.6H7.522V7.522H12.6Z" transform="translate(0 0.001)" fill="#fff"/>
        <path id="Trazado_384" data-name="Trazado 384" d="M32.78,7.843H26.63L26.322,6.61a2.767,2.767,0,0,0-2.535-2.259H15.045a2.1,2.1,0,0,0-.545.082V9.34H9.425v5.075H3.252V31.193a2.8,2.8,0,0,0,2.8,2.8H32.78a2.8,2.8,0,0,0,2.8-2.8V10.644a2.8,2.8,0,0,0-2.8-2.8M19.416,29.425a8.373,8.373,0,1,1,8.373-8.373,8.373,8.373,0,0,1-8.373,8.373" transform="translate(0.251 0.336)" fill="#fff"/>
      </g>
    </g>
  </g>
</svg>