<svg id="Grupo_186" data-name="Grupo 186" xmlns="http://www.w3.org/2000/svg" xmlns:xlink="http://www.w3.org/1999/xlink" width="48.489" height="51.187" viewBox="0 0 48.489 51.187">
  <defs>
    <clipPath id="clip-path">
      <rect id="Rectángulo_149" data-name="Rectángulo 149" width="48.489" height="51.187" fill="none"/>
    </clipPath>
  </defs>
  <g id="Grupo_171" data-name="Grupo 171" clip-path="url(#clip-path)">
    <path id="Trazado_299" data-name="Trazado 299" d="M144.01,51.187h-31.9a4.171,4.171,0,0,1-4.158-4.158V4.159A4.171,4.171,0,0,1,112.106,0h23.305l12.757,12.747V47.028a4.171,4.171,0,0,1-4.158,4.158" transform="translate(-99.68)" fill="#3da80b"/>
    <path id="Trazado_300" data-name="Trazado 300" d="M455.1,0h-.947V11.568a2.233,2.233,0,0,0,2.227,2.227h11.477V12.747Z" transform="translate(-419.37)" fill="#327c0b"/>
    <path id="Trazado_301" data-name="Trazado 301" d="M55.914,266.46H22.362a.8.8,0,0,0-.8.8v13.468a.8.8,0,0,0,.8.8H55.914a.8.8,0,0,0,.8-.8V267.264a.8.8,0,0,0-.8-.8" transform="translate(-19.907 -246.051)" fill="#fff"/>
    <path id="Trazado_302" data-name="Trazado 302" d="M36.007,244.9H2.455A2.457,2.457,0,0,0,0,247.357v13.468a2.458,2.458,0,0,0,2.455,2.455H36.007a2.458,2.458,0,0,0,2.455-2.455V247.357a2.457,2.457,0,0,0-2.455-2.455m.8,15.923a.8.8,0,0,1-.8.8H2.455a.8.8,0,0,1-.8-.8V247.357a.8.8,0,0,1,.8-.8H36.007a.8.8,0,0,1,.8.8Z" transform="translate(0 -226.145)" fill="#6bc63c"/>
    <path id="Trazado_303" data-name="Trazado 303" d="M75.034,396.081a1.1,1.1,0,1,1-1.1,1.1,1.089,1.089,0,0,1,1.1-1.1" transform="translate(-68.272 -365.744)" fill="#6bc63c"/>
    <path id="Trazado_304" data-name="Trazado 304" d="M124.381,303.708l-2.014-2.817a1.076,1.076,0,0,1-.2-.618.959.959,0,0,1,.976-.964,1,1,0,0,1,.84.432l1.581,2.2c.469-.741.939-1.433,1.4-2.149a.925.925,0,0,1,.84-.482,1,1,0,0,1,.976.988,1.079,1.079,0,0,1-.185.581l-1.828,2.693,2.446,3.743a1.324,1.324,0,0,1,.247.729.781.781,0,0,1-.889.889,1.1,1.1,0,0,1-.914-.494l-2.075-3.039-1.927,3.014a1.021,1.021,0,0,1-.926.519.8.8,0,0,1-.889-.9,1.335,1.335,0,0,1,.21-.7Z" transform="translate(-112.504 -276.385)" fill="#6bc63c"/>
    <path id="Trazado_305" data-name="Trazado 305" d="M240.216,300.15a.988.988,0,1,1,1.977,0V306.8h3.1a.988.988,0,1,1,0,1.977h-3.941c-.766,0-1.137-.42-1.137-1.223Z" transform="translate(-221.817 -276.237)" fill="#6bc63c"/>
    <path id="Trazado_306" data-name="Trazado 306" d="M337.222,297.813c-.506,0-.828.161-.828.7,0,.605.754.791,1.52,1.161,1.495.729,2.557,1.408,2.557,2.928a3.117,3.117,0,0,1-3.372,3.187,4.1,4.1,0,0,1-2.285-.679,1.108,1.108,0,0,1-.568-.976.838.838,0,0,1,.964-.951,1.456,1.456,0,0,1,.729.21,2.277,2.277,0,0,0,1.161.346c.679,0,1.272-.358,1.272-1.062,0-.42-.333-.7-1.322-1.161-1.248-.581-2.73-1.285-2.73-2.952a2.874,2.874,0,0,1,2.915-2.8,3.542,3.542,0,0,1,2.149.716,1.177,1.177,0,0,1,.556.964,1.032,1.032,0,0,1-.976,1.038,1.183,1.183,0,0,1-.778-.309,1.575,1.575,0,0,0-.964-.358" transform="translate(-308.645 -273.109)" fill="#6bc63c"/>
  </g>
</svg>
