<?xml version="1.0" encoding="utf-8"?>
<!-- Generator: Adobe Illustrator 27.7.0, SVG Export Plug-In . SVG Version: 6.00 Build 0)  -->
<svg version="1.1" id="Layer_1" xmlns="http://www.w3.org/2000/svg" xmlns:xlink="http://www.w3.org/1999/xlink" x="0px" y="0px"
	 viewBox="0 0 83.3 83.3" style="enable-background:new 0 0 83.3 83.3;" xml:space="preserve">
<style type="text/css">
	.st0{fill:#364C9B;}
</style>
<g>
	<path class="st0" d="M41.3,4C20.5,4,3.6,20.9,3.6,41.7c0,20.8,16.9,37.8,37.7,37.8s37.8-16.9,37.8-37.8C79.1,20.9,62.1,4,41.3,4z
		 M51.3,46.4L57,71.9h-32l6.6-24.6l1.8-6.3c-5.5-3-9.2-8.8-9.2-15.5c0-9.7,7.9-17.6,17.6-17.6s17.6,7.9,17.6,17.6
		c0,6.7-3.7,12.5-9.2,15.5L51.3,46.4z"/>
	<path class="st0" d="M80.9,27.8c-0.2-0.5-0.4-1-0.6-1.5c-0.2-0.5-0.4-0.9-0.6-1.4c-0.1-0.2-0.1-0.3-0.2-0.4
		c-0.2-0.4-0.4-0.7-0.5-1.1c-0.6-1.2-1.3-2.4-2-3.6c-0.2-0.4-0.4-0.7-0.7-1.1c-0.2-0.3-0.4-0.7-0.7-1c-0.4-0.6-0.9-1.2-1.4-1.8
		c-0.2-0.3-0.4-0.5-0.6-0.7c-0.4-0.5-0.8-1-1.2-1.4c-0.3-0.4-0.6-0.7-1-1c-0.2-0.3-0.5-0.5-0.8-0.8c-1.2-1.2-2.4-2.2-3.7-3.2
		c-0.4-0.3-0.8-0.6-1.2-0.9c-0.4-0.3-0.9-0.6-1.3-0.9c-0.9-0.6-1.8-1.1-2.7-1.6C61.4,5,61,4.8,60.5,4.5c-0.4-0.2-0.9-0.4-1.3-0.6
		c-0.1-0.1-0.2-0.1-0.4-0.2c-0.4-0.2-0.8-0.4-1.2-0.5c-0.5-0.2-1-0.4-1.5-0.6c-0.2-0.1-0.5-0.2-0.7-0.3C54.9,2.2,54.5,2,54,1.9
		c0,0,0,0,0,0c-0.6-0.2-1.2-0.4-1.8-0.5c-0.1,0-0.2,0-0.2-0.1c-0.4-0.1-0.8-0.2-1.2-0.3c-0.3-0.1-0.6-0.1-0.9-0.2
		c-0.5-0.1-1.1-0.2-1.6-0.3c-0.5-0.1-0.9-0.2-1.4-0.2c-0.1,0-0.2,0-0.3,0c-0.4,0-0.7-0.1-1.1-0.1c-0.5-0.1-1.1-0.1-1.6-0.1
		C43.1,0,42.3,0,41.6,0C18.6,0,0,18.6,0,41.6c0,23,18.6,41.6,41.6,41.6c0.7,0,1.4,0,2-0.1c0.1,0,0.3,0,0.4,0c0.4,0,0.8,0,1.2-0.1
		c0.3,0,0.6,0,0.9-0.1c0.5-0.1,1.1-0.1,1.6-0.2c0.3,0,0.6-0.1,0.9-0.2c0.3,0,0.6-0.1,0.9-0.2c0.3-0.1,0.5-0.1,0.8-0.2
		c0.4-0.1,0.8-0.2,1.1-0.3c0.2-0.1,0.5-0.1,0.7-0.2c0.6-0.2,1.2-0.3,1.8-0.5c0.4-0.1,0.7-0.2,1.1-0.4c0.5-0.2,0.9-0.3,1.4-0.5
		c0.9-0.4,1.8-0.7,2.7-1.2c0.4-0.2,0.7-0.3,1-0.5c0.2-0.1,0.3-0.2,0.5-0.3c0.4-0.2,0.7-0.4,1.1-0.6c0.9-0.5,1.7-1,2.5-1.5
		c0.4-0.3,0.8-0.5,1.2-0.8c0.4-0.3,0.8-0.6,1.2-0.9c0.4-0.3,0.8-0.6,1.1-0.9c0.3-0.3,0.7-0.6,1-0.9c0,0,0.1-0.1,0.2-0.1
		c0.3-0.3,0.6-0.5,0.9-0.8c0.1-0.1,0.2-0.1,0.2-0.2c1-1,2-2,2.9-3c0.3-0.4,0.6-0.7,0.9-1.1c0.9-1.1,1.8-2.3,2.6-3.6c0,0,0,0,0,0
		c0.8-1.2,1.5-2.5,2.2-3.8c0.2-0.4,0.4-0.9,0.6-1.3c2.4-5.3,3.8-11.2,3.8-17.4C83.3,36.8,82.4,32.1,80.9,27.8z M80,46.9
		c-2.6,18.9-18.8,33.5-38.4,33.5C20.3,80.4,2.9,63,2.9,41.6S20.3,2.9,41.6,2.9c20.8,0,37.8,16.4,38.7,37L80,46.9z"/>
</g>
</svg>
