<svg xmlns="http://www.w3.org/2000/svg" xmlns:xlink="http://www.w3.org/1999/xlink" width="103.401" height="63.258" viewBox="0 0 103.401 63.258">
  <defs>
    <linearGradient id="linear-gradient" x1="0.635" y1="6.742" x2="-0.478" y2="6.679" gradientUnits="objectBoundingBox">
      <stop offset="0" stop-color="#00c4ff"/>
      <stop offset="1" stop-color="#001973"/>
    </linearGradient>
    <linearGradient id="linear-gradient-2" x1="0.832" y1="1.007" x2="-0.353" y2="0.961" gradientUnits="objectBoundingBox">
      <stop offset="0" stop-color="#001973"/>
      <stop offset="1" stop-color="#00c4ff"/>
    </linearGradient>
    <linearGradient id="linear-gradient-3" x1="18.541" y1="43.606" x2="17.429" y2="43.543" xlink:href="#linear-gradient"/>
    <linearGradient id="linear-gradient-4" x1="34.404" y1="50.971" x2="33.221" y2="50.926" xlink:href="#linear-gradient-2"/>
  </defs>
  <g id="graphics" transform="translate(-0.071 0.06)">
    <g id="Grupo_2548" data-name="Grupo 2548" transform="translate(40.663 20.19)">
      <path id="Trazado_802" data-name="Trazado 802" d="M94.835,46.111a2.66,2.66,0,0,1-.451.551,1.228,1.228,0,0,1-.6.2,2.408,2.408,0,0,1-.752-.2c-.251-.15-.551-.3-.9-.5a6.134,6.134,0,0,0-1.153-.5,4.248,4.248,0,0,0-1.454-.2,3.106,3.106,0,0,0-2.105.6,2.117,2.117,0,0,0-.7,1.654,1.652,1.652,0,0,0,.4,1.1,3.571,3.571,0,0,0,1.1.752,9.28,9.28,0,0,0,1.554.551c.6.2,1.153.351,1.754.6a10.875,10.875,0,0,1,1.754.752,5.81,5.81,0,0,1,1.554,1.1,5.613,5.613,0,0,1,1.1,1.654,5.425,5.425,0,0,1,.4,2.306,8.46,8.46,0,0,1-.5,2.807,6.65,6.65,0,0,1-3.96,3.86,10.361,10.361,0,0,1-5.364.351,15.9,15.9,0,0,1-2.055-.6,12.672,12.672,0,0,1-1.855-.9A7.411,7.411,0,0,1,81.1,60.9l1.5-2.356a.885.885,0,0,1,.451-.4,1.388,1.388,0,0,1,.652-.15,1.617,1.617,0,0,1,.9.3c.3.2.652.4,1,.6a7.853,7.853,0,0,0,1.3.6,4.766,4.766,0,0,0,1.754.3,3.444,3.444,0,0,0,2.155-.6,2.316,2.316,0,0,0,.752-1.9,1.829,1.829,0,0,0-.4-1.2,3.684,3.684,0,0,0-1.1-.8,9.28,9.28,0,0,0-1.554-.551c-.6-.15-1.153-.351-1.754-.5a10.676,10.676,0,0,1-1.754-.7,5.81,5.81,0,0,1-1.554-1.1,5.527,5.527,0,0,1-1.1-1.754,6.525,6.525,0,0,1-.4-2.557,5.535,5.535,0,0,1,.5-2.356,5.725,5.725,0,0,1,1.454-2.055,6.944,6.944,0,0,1,2.356-1.454,8.868,8.868,0,0,1,3.158-.551,12.839,12.839,0,0,1,1.955.15A10.8,10.8,0,0,1,94.785,43a8.732,8.732,0,0,1,1.3.952Z" transform="translate(-81.1 -40.998)"/>
      <path id="Trazado_803" data-name="Trazado 803" d="M126.731,57.71l-.4.4a.806.806,0,0,1-.551.15,1.069,1.069,0,0,1-.6-.15,3.739,3.739,0,0,1-.6-.351,3.88,3.88,0,0,0-.8-.351,3.785,3.785,0,0,0-1.153-.15,3.272,3.272,0,0,0-1.454.3,2.476,2.476,0,0,0-1,.9,4.881,4.881,0,0,0-.6,1.454,10.583,10.583,0,0,0-.2,1.9,5.892,5.892,0,0,0,.852,3.409,2.709,2.709,0,0,0,2.356,1.2,2.841,2.841,0,0,0,1.253-.2,5.722,5.722,0,0,0,.8-.451l.6-.451a1.061,1.061,0,0,1,.7-.2.911.911,0,0,1,.8.4l1.353,1.654a6.979,6.979,0,0,1-1.5,1.3,6.861,6.861,0,0,1-1.6.8,9.929,9.929,0,0,1-1.654.4,9.168,9.168,0,0,1-1.654.1,7.059,7.059,0,0,1-2.707-.551,6.988,6.988,0,0,1-2.256-1.554,7.865,7.865,0,0,1-1.554-2.506,9.185,9.185,0,0,1-.551-3.409,8.985,8.985,0,0,1,.5-3.108,7.321,7.321,0,0,1,1.454-2.506,6.871,6.871,0,0,1,2.406-1.654,8.47,8.47,0,0,1,3.308-.6,7.717,7.717,0,0,1,3.158.6,7.475,7.475,0,0,1,2.456,1.7Z" transform="translate(-97.807 -47.083)"/>
      <path id="Trazado_804" data-name="Trazado 804" d="M151.32,53.7a9.362,9.362,0,0,1,3.208.551,6.86,6.86,0,0,1,2.456,1.554,7.179,7.179,0,0,1,1.6,2.506,8.653,8.653,0,0,1,.551,3.308,9.737,9.737,0,0,1-.551,3.308,6.746,6.746,0,0,1-1.6,2.506,8.332,8.332,0,0,1-2.456,1.6,9.362,9.362,0,0,1-3.208.551,9.153,9.153,0,0,1-3.208-.551,7.67,7.67,0,0,1-2.506-1.6,7.8,7.8,0,0,1-1.654-2.506,8.824,8.824,0,0,1-.551-3.308,9.953,9.953,0,0,1,.551-3.308,6.641,6.641,0,0,1,1.654-2.506,7.253,7.253,0,0,1,2.506-1.554A8.3,8.3,0,0,1,151.32,53.7Zm0,12.482a2.75,2.75,0,0,0,2.356-1.1,6.248,6.248,0,0,0,.752-3.409,6.133,6.133,0,0,0-.752-3.409,2.632,2.632,0,0,0-2.356-1.1,2.783,2.783,0,0,0-2.406,1.1,6.133,6.133,0,0,0-.752,3.409,6.133,6.133,0,0,0,.752,3.409A2.846,2.846,0,0,0,151.32,66.182Z" transform="translate(-112.17 -46.983)"/>
      <path id="Trazado_805" data-name="Trazado 805" d="M185.014,43.007a3.241,3.241,0,0,1-.2,1,3.292,3.292,0,0,1-.6.852,2.844,2.844,0,0,1-.9.6,2.7,2.7,0,0,1-1.1.2,3.567,3.567,0,0,1-1.053-.2,3.293,3.293,0,0,1-.852-.6,2.621,2.621,0,0,1-.6-.852,2.244,2.244,0,0,1-.2-1,3.567,3.567,0,0,1,.2-1.053,3.069,3.069,0,0,1,1.454-1.454,2.465,2.465,0,0,1,1.053-.2,2.7,2.7,0,0,1,1.1.2,2.844,2.844,0,0,1,.9.6,3.292,3.292,0,0,1,.6.852A2.465,2.465,0,0,1,185.014,43.007Zm-.5,4.261V62.707H179.9V47.268Z" transform="translate(-130.174 -40.3)"/>
      <path id="Trazado_806" data-name="Trazado 806" d="M201.812,40.5V62.807H197.2V40.5Z" transform="translate(-139.002 -40.4)"/>
    </g>
    <g id="Scoil_iso" transform="translate(0.071 -0.06)">
      <g id="Grupo_2543" data-name="Grupo 2543">
        <g id="Grupo_2541" data-name="Grupo 2541">
          <path id="Trazado_794" data-name="Trazado 794" d="M36.282,7.111c.111,3.7-1.444,6.074-4.592,7.926-3.852,2.259-7.815,4.592-11.7,6.852-4.3,2.481-5.37,5.518-2.3,9.518-1,2.222-4.481,1.778-6.444,1.481C9.1,31.518,8.468,28.666,8.579,26.3a13.536,13.536,0,0,1,4.37-8.815C20.727,11.666,28.468,5.815,36.282,0Z" transform="translate(-5.941)" fill="url(#linear-gradient)"/>
          <path id="Trazado_795" data-name="Trazado 795" d="M13.226,61.152s-.444-.37-1.259-1.074C8.3,56.818,3.523,51.744,8.486,47.3A22.047,22.047,0,0,0,4.3,51.633c-3.518,4.7-2.815,12.259-2.667,17.926.074,2.7,3.3,3.3,5.333,2.222,2.259-1.222,4.63-2.518,6.815-3.7C17.115,66.263,15.486,62.966,13.226,61.152Z" transform="translate(-1.477 -29.782)" fill="url(#linear-gradient-2)"/>
        </g>
        <g id="Grupo_2542" data-name="Grupo 2542" transform="translate(0.299 20.717)">
          <path id="Trazado_796" data-name="Trazado 796" d="M2.291,107.319c-.111-3.7,1.444-6.111,4.592-7.963,3.852-2.259,7.815-4.592,11.74-6.815,4.3-2.481,5.37-5.518,2.259-9.481,1-2.222,4.481-1.778,6.444-1.481,2.185,1.333,2.778,4.185,2.667,6.555a13.621,13.621,0,0,1-4.37,8.815q-11.611,8.778-23.333,17.518C2.291,112.06,2.291,109.69,2.291,107.319Z" transform="translate(-2.285 -71.926)" fill="url(#linear-gradient-3)"/>
          <path id="Trazado_797" data-name="Trazado 797" d="M48.287,67.071s.444.37,1.259,1.074c3.667,3.259,8.444,8.333,3.481,12.777a22.047,22.047,0,0,0,4.185-4.333c3.518-4.7,2.815-12.259,2.667-17.926-.074-2.7-3.3-3.3-5.333-2.222-2.259,1.222-4.63,2.518-6.815,3.7C44.361,61.96,45.991,65.256,48.287,67.071Z" transform="translate(-29.689 -55.936)" fill="url(#linear-gradient-4)"/>
        </g>
      </g>
    </g>
  </g>
</svg>
